<svg width="39" height="54" viewBox="0 0 39 54" fill="none" xmlns="http://www.w3.org/2000/svg">
<path d="M2.21484 41.207C2.67188 40.9609 3.34863 40.7852 4.24512 40.6797C5.1416 40.5566 5.9502 40.3633 6.6709 40.0996C6.75879 39.748 6.81152 39.4932 6.8291 39.335C6.86426 39.0889 6.88184 38.2451 6.88184 36.8037L6.85547 30.9238L6.96094 27.7598L6.9082 25.3076L6.96094 23.8838C7.01367 21.9678 7.04004 20.1748 7.04004 18.5049C7.04004 14.8486 6.99609 12.5107 6.9082 11.4912L5.35254 11.1748C3.92871 11.0869 2.97949 10.999 2.50488 10.9111L2.45215 9.3291L2.55762 9.03906C3.43652 8.89844 4.24512 8.82812 4.9834 8.82812C5.3877 8.82812 6.20508 8.81934 7.43555 8.80176C8.70117 8.90723 9.38672 8.95996 9.49219 8.95996L10.8896 8.88086L14.1855 8.72266C16.2422 8.51172 18.4131 8.40625 20.6982 8.40625C24.3018 8.40625 27.167 9.3291 29.2939 11.1748C31.4209 13.0029 32.4844 15.1035 32.4844 17.4766C32.4844 19.252 31.9043 20.8691 30.7441 22.3281C29.6016 23.7695 27.835 24.8594 25.4443 25.5977C25.6553 25.9668 25.9365 26.3975 26.2881 26.8896C27.0264 27.9443 27.624 28.8408 28.0811 29.5791L32.2998 36.4082C33.3545 38.2188 34.04 39.2822 34.3564 39.5986C34.6904 39.8975 35.3672 40.2314 36.3867 40.6006C37.1777 40.8994 37.7842 41.1982 38.2061 41.4971C38.3115 41.7959 38.3643 42.0596 38.3643 42.2881C38.3643 42.4463 38.3555 42.6484 38.3379 42.8945H37.626L37.0986 42.9209L35.7275 42.7363H34.6465C34.084 42.6484 33.3896 42.6045 32.5635 42.6045L29.9268 42.5781C29.7334 42.5781 29.1182 42.6396 28.0811 42.7627C27.6064 42.8154 27.2285 42.8594 26.9473 42.8945L26.0508 41.1543C25.3125 39.8359 24.7939 38.8516 24.4951 38.2012C23.7217 36.4961 22.3945 33.7803 20.5137 30.0537C19.6348 28.3311 19.0195 27.3555 18.668 27.127C18.1406 26.7578 17.2354 26.5732 15.9521 26.5732C15.6006 26.5732 15.0029 26.5908 14.1592 26.626C14.1064 27.1357 14.0801 27.7422 14.0801 28.4453L14.1855 34.2988L14.0537 39.2559C14.5459 39.5547 15.1875 39.7832 15.9785 39.9414C17.3496 40.2227 18.5273 40.5566 19.5117 40.9434C19.5117 41.8047 19.4766 42.4551 19.4062 42.8945C19.0723 42.877 18.8613 42.8682 18.7734 42.8682L17.6924 42.9209C13.9131 42.5869 11.6719 42.4199 10.9688 42.4199C10.5117 42.4199 10.1865 42.4287 9.99316 42.4463L6.35449 42.6836C5.24707 42.8066 4.23633 42.8682 3.32227 42.8682H2.18848C2.15332 42.4287 2.13574 42.1475 2.13574 42.0244C2.13574 41.8311 2.16211 41.5586 2.21484 41.207ZM14.0801 24.1475C14.9238 24.1826 15.5391 24.2002 15.9258 24.2002C18.9141 24.2002 21.0322 23.6641 22.2803 22.5918C23.5283 21.5195 24.1523 20.0869 24.1523 18.2939C24.1523 17.1865 23.9941 16.1494 23.6777 15.1826C23.3789 14.1982 23.001 13.4688 22.5439 12.9941C21.8936 12.3086 21.041 11.79 19.9863 11.4385C19.2129 11.1748 17.9736 11.043 16.2686 11.043C15.46 11.043 14.7656 11.0869 14.1855 11.1748L14.1592 11.6758L14.1855 15.2354L14.1328 17.3975L14.1592 20.2715C14.124 21.0801 14.0977 22.126 14.0801 23.4092V24.1475Z" fill="#133F5F"/>
</svg>
