<svg width="16" height="16" viewBox="0 0 16 16" fill="none" xmlns="http://www.w3.org/2000/svg">
<g id="Frame 1948753009">
<g id="122, bulb, idea, user, person, light">
<g id="Group">
<path id="Vector" d="M7.19336 2.90477V3.48446C7.19336 3.80952 7.44263 4.06416 7.76012 4.06416C8.07761 4.06416 8.32686 3.80952 8.32686 3.48446V2.90477C8.32686 2.57971 8.07761 2.32507 7.76012 2.32507C7.44263 2.32507 7.19336 2.57971 7.19336 2.90477Z" fill="#003081"/>
<path id="Vector_2" d="M9.03171 7.82133C9.28097 7.82133 9.46334 7.61274 9.46334 7.38114V5.57298C9.46334 4.90118 8.94119 4.36754 8.28392 4.36754H7.24094C6.58367 4.36754 6.06152 4.90118 6.06152 5.57298V7.38114C6.06152 7.63577 6.26617 7.82133 6.49314 7.82133H6.62958V6.52243C6.62958 6.45336 6.69781 6.38292 6.76603 6.38292C6.83425 6.38292 6.90246 6.452 6.90246 6.52243V7.82133H8.60402V6.52243C8.60402 6.45336 8.67224 6.38292 8.74046 6.38292C8.80868 6.38292 8.87691 6.452 8.87691 6.52243V7.82133H9.03565H9.03171Z" fill="#003081"/>
<path id="Vector_3" d="M5.19842 8.54053C5.76517 9.32881 6.15087 10.3257 6.2427 11.3469H6.62842V8.12337H6.49197C6.08396 8.12337 5.76649 7.79831 5.76649 7.38114V5.57298C5.76649 4.78471 6.35686 4.13594 7.12696 4.08853C6.99051 3.926 6.89998 3.71742 6.89998 3.50884V2.92914C6.89998 2.46593 7.26339 2.07043 7.71601 2.07043C6.80816 2.09346 5.94622 2.46457 5.28895 3.13772C4.56345 3.87995 4.17773 4.85378 4.17773 5.89669C4.17773 6.80145 4.49523 7.68182 5.03968 8.378C5.1079 8.40102 5.15381 8.44708 5.19842 8.54053Z" fill="#003081"/>
<path id="Vector_4" d="M8.62344 11.2995V8.12201H6.92188V11.3225H7.62506V9.44393C7.62506 9.37485 7.69329 9.30442 7.76151 9.30442C7.82973 9.30442 7.89796 9.3735 7.89796 9.44393V11.3225H8.62344V11.2995Z" fill="#003081"/>
<path id="Vector_5" d="M7.89807 12.528H9.55372C9.78068 12.528 9.96173 12.3194 9.96173 12.0647C9.96173 11.8331 9.78068 11.6246 9.55372 11.6246H5.96953C5.74257 11.6246 5.56152 11.8101 5.56152 12.0647C5.56152 12.3194 5.74257 12.528 5.96953 12.528H6.24111C6.30933 12.528 6.37754 12.597 6.37754 12.6675V13.2932C6.37754 13.8038 6.76324 14.198 7.26177 14.198H8.21423C8.71276 14.198 9.09847 13.8038 9.09847 13.2932V12.8056H7.87313C7.80491 12.8056 7.73669 12.7365 7.73669 12.6661C7.75899 12.597 7.82722 12.5266 7.89544 12.5266L7.89807 12.528Z" fill="#003081"/>
<path id="Vector_6" d="M8.62398 2.90476V3.48445C8.62398 3.71606 8.53346 3.92464 8.39702 4.06414C9.14613 4.13322 9.75749 4.76032 9.75749 5.5486V7.35676C9.75749 7.77392 9.44 8.09898 9.03199 8.09898H8.89556V11.3225H9.28126C9.3954 10.3026 9.78111 9.30442 10.3702 8.51614C10.4148 8.44707 10.4607 8.39966 10.5066 8.33059C11.0733 7.63441 11.3908 6.75404 11.3908 5.82626C11.3908 3.73908 9.77979 2.02303 7.80666 2H7.76074C8.23697 2.02303 8.62267 2.41716 8.62267 2.90476H8.62398Z" fill="#003081"/>
<path id="Vector_7" d="M13.568 14.198H12.8648V12.0187C12.8648 11.9496 12.7966 11.8792 12.7284 11.8792C12.6601 11.8792 12.5919 11.9483 12.5919 12.0187V14.198H11.73V10.0006C11.73 9.93151 11.6618 9.86108 11.5935 9.86108C11.5253 9.86108 11.4571 9.93016 11.4571 10.0006V14.198H4.08409V10.0006C4.08409 9.93151 4.01586 9.86108 3.94764 9.86108C3.87942 9.86108 3.78891 9.93016 3.78891 10.0006V14.198H2.92698V12.0187C2.92698 11.9496 2.85875 11.8792 2.79053 11.8792C2.72231 11.8792 2.65409 11.9483 2.65409 12.0417V14.221H1.9509C1.88268 14.221 1.81445 14.2901 1.81445 14.3605C1.81445 14.4309 1.88268 14.5 1.9509 14.5H13.5877C13.6559 14.5 13.7241 14.4309 13.7241 14.3605C13.7241 14.2684 13.6559 14.198 13.5654 14.198H13.568Z" fill="#003081"/>
<path id="Vector_8" d="M13.3873 6.84749C13.4096 6.87052 13.4332 6.87051 13.4555 6.87051C13.5014 6.87051 13.546 6.84749 13.5683 6.80144C13.8412 6.33823 13.9999 5.82761 13.9999 5.31699C13.9999 4.80637 13.8412 4.2971 13.5683 3.83254C13.5224 3.76346 13.4319 3.74044 13.365 3.78649C13.2967 3.83254 13.2744 3.92599 13.319 3.99507C13.5683 4.41223 13.7047 4.85242 13.7047 5.31699C13.7047 5.78155 13.5683 6.24477 13.319 6.66194C13.2967 6.73101 13.3191 6.82447 13.3873 6.84749Z" fill="#003081"/>
<path id="Vector_9" d="M12.5937 6.26778C12.616 6.29081 12.6396 6.2908 12.6619 6.2908C12.7065 6.2908 12.7524 6.26778 12.7747 6.22173C12.9334 5.94407 13.0017 5.64203 13.0017 5.31697C13.0017 5.01493 12.9111 4.71425 12.7747 4.43524C12.7288 4.36617 12.6383 4.34314 12.5701 4.38919C12.5018 4.43524 12.4795 4.5287 12.5241 4.59777C12.6606 4.82938 12.7288 5.08401 12.7288 5.34C12.7288 5.59599 12.6606 5.85062 12.5241 6.10525C12.5018 6.1513 12.5241 6.24476 12.5923 6.26778H12.5937Z" fill="#003081"/>
<path id="Vector_10" d="M2.06806 6.87051C2.09036 6.87051 2.11398 6.87052 2.13628 6.84749C2.2045 6.80144 2.2268 6.70798 2.18219 6.63891C1.93293 6.22175 1.7965 5.7802 1.7965 5.31699C1.7965 4.85377 1.93293 4.38921 2.18219 3.97204C2.22811 3.90297 2.2045 3.80951 2.13628 3.76346C2.06806 3.71741 1.97753 3.74043 1.93161 3.80951C1.66004 4.27272 1.5 4.78335 1.5 5.29396C1.5 5.80458 1.65873 6.31385 1.93161 6.77841C1.97753 6.84749 2.02214 6.87051 2.06806 6.87051Z" fill="#003081"/>
<path id="Vector_11" d="M2.86145 6.29084C2.88376 6.29084 2.90736 6.29084 2.92966 6.26781C2.99788 6.22176 3.02019 6.12831 2.97428 6.05923C2.83784 5.82762 2.77092 5.57164 2.77092 5.317C2.77092 5.06237 2.83915 4.80639 2.97428 4.55175C3.02019 4.48268 2.99657 4.38922 2.92966 4.34317C2.86144 4.29712 2.77092 4.32015 2.72501 4.38923C2.56626 4.66688 2.49805 4.96892 2.49805 5.29398C2.49805 5.59602 2.58857 5.8967 2.72501 6.17571C2.77092 6.26781 2.81554 6.29219 2.86145 6.29219V6.29084Z" fill="#003081"/>
</g>
</g>
</g>
</svg>
