<svg width="16" height="16" viewBox="0 0 16 16" fill="none" xmlns="http://www.w3.org/2000/svg">
<path d="M14.5196 6.04987H13.5827C13.5086 6.04987 13.4346 6.1213 13.4346 6.19414C13.4346 6.26699 13.5086 6.33844 13.5827 6.33844H14.5196C14.5936 6.33844 14.6676 6.26699 14.6676 6.19414C14.6676 6.1213 14.5936 6.04987 14.5196 6.04987Z" fill="#003081"/>
<path d="M13.5834 5.45028C13.6076 5.45028 13.6332 5.45027 13.6574 5.42646L14.5943 4.82687C14.6684 4.77924 14.6926 4.68259 14.6441 4.61115C14.5943 4.5397 14.4961 4.51587 14.422 4.5635L13.4851 5.16309C13.4111 5.21072 13.3869 5.30738 13.4353 5.37883C13.4851 5.42646 13.5335 5.45028 13.5834 5.45028Z" fill="#003081"/>
<path d="M14.594 7.56142L13.6571 6.96185C13.583 6.91422 13.4848 6.93803 13.4349 7.00948C13.3851 7.08092 13.4107 7.17757 13.4848 7.2252L14.4217 7.82479C14.4459 7.8486 14.4715 7.84861 14.4957 7.84861C14.5456 7.84861 14.594 7.82479 14.6196 7.77716C14.6936 7.70572 14.6694 7.60905 14.5954 7.56142H14.594Z" fill="#003081"/>
<path d="M11.4372 12.9338H5.49395V9.62354H3.98893L4.55563 12.9338H3.12465C3.05061 12.9338 2.97656 13.0053 2.97656 13.0781C2.97656 13.151 3.05061 13.2224 3.12465 13.2224H11.46C11.534 13.2224 11.6081 13.151 11.6081 13.0781C11.6081 13.0053 11.5098 12.9338 11.4358 12.9338H11.4372Z" fill="#003081"/>
<path d="M11.9801 2.5L7.04785 3.91491V8.49581L11.9801 9.9107V2.5ZM11.2155 8.87965C11.0432 8.87965 10.8951 8.73536 10.8951 8.56725C10.8951 8.39915 11.0432 8.25486 11.2155 8.25486C11.3878 8.25486 11.5359 8.39915 11.5359 8.56725C11.5117 8.75918 11.3636 8.87965 11.2155 8.87965ZM11.2155 7.99289C11.0432 7.99289 10.8951 7.84859 10.8951 7.68048C10.8951 7.51237 11.0432 7.36809 11.2155 7.36809C11.3878 7.36809 11.5359 7.51237 11.5359 7.68048C11.5359 7.84859 11.3636 7.99289 11.2155 7.99289ZM11.2155 7.08091C11.0432 7.08091 10.8951 6.93663 10.8951 6.76852C10.8951 6.60041 11.0432 6.45611 11.2155 6.45611C11.3878 6.45611 11.5359 6.60041 11.5359 6.76852C11.5359 6.93663 11.3636 7.08091 11.2155 7.08091ZM11.2155 6.19414C11.0432 6.19414 10.8951 6.04985 10.8951 5.88175C10.8951 5.71364 11.0432 5.56935 11.2155 5.56935C11.3878 5.56935 11.5359 5.71364 11.5359 5.88175C11.5359 6.04985 11.3636 6.19414 11.2155 6.19414ZM11.2155 5.28216C11.0432 5.28216 10.8951 5.13787 10.8951 4.96977C10.8951 4.80166 11.0432 4.65737 11.2155 4.65737C11.3878 4.65737 11.5359 4.80166 11.5359 4.96977C11.5359 5.13787 11.3636 5.28216 11.2155 5.28216ZM11.2155 4.39541C11.0432 4.39541 10.8951 4.25112 10.8951 4.08301C10.8951 3.9149 11.0432 3.77062 11.2155 3.77062C11.3878 3.77062 11.5359 3.9149 11.5359 4.08301C11.5359 4.25112 11.3636 4.39541 11.2155 4.39541Z" fill="#003081"/>
<path d="M5.19764 8.73676H4.26074V9.33634H5.19764V8.73676Z" fill="#003081"/>
<path d="M3.76781 8.44819H6.72661V3.93872H3.76781C3.20111 3.93872 2.70703 4.39401 2.70703 4.96977V7.41573C2.73124 7.96768 3.19968 8.44679 3.76781 8.44679V8.44819ZM5.05071 7.8486H4.43418C4.36014 7.8486 4.2861 7.77715 4.2861 7.70431C4.2861 7.63146 4.36014 7.56001 4.43418 7.56001H5.05071C5.12475 7.56001 5.1988 7.63146 5.1988 7.70431C5.1988 7.77715 5.12475 7.8486 5.05071 7.8486ZM5.66726 6.93662H3.81766C3.74361 6.93662 3.66957 6.86518 3.66957 6.79233C3.66957 6.71948 3.74361 6.64803 3.81766 6.64803H5.66726C5.7413 6.64803 5.81533 6.71948 5.81533 6.79233C5.81533 6.86518 5.7413 6.93662 5.66726 6.93662ZM3.3492 4.99359C3.3492 4.92215 3.42324 4.8493 3.49729 4.8493H5.96342C6.03746 4.8493 6.11151 4.92075 6.11151 4.99359V5.90557C6.11151 5.97702 6.03746 6.04987 5.96342 6.04987H3.49729C3.42324 6.04987 3.3492 5.97842 3.3492 5.90557V4.99359Z" fill="#003081"/>
<path d="M5.81451 5.13928H3.64453V5.73885H5.81451V5.13928Z" fill="#003081"/>
<path d="M1.5 6.50515C1.5 6.7447 1.69792 6.93662 1.94425 6.93662H2.4369V5.37743H1.94425C1.69792 5.37743 1.5 5.56934 1.5 5.80889V6.50515Z" fill="#003081"/>
</svg>
