<svg xmlns="http://www.w3.org/2000/svg" width="105" height="105" viewBox="0 0 105 105" fill="none">
  <g style="mix-blend-mode:multiply" opacity="0.3">
    <path opacity="0.02" d="M62.3131 101.146C38.3129 101.146 1.00256 75.5637 1.00256 41.2929C1.00256 3.8763 22.8457 0.986328 46.8459 0.986328C70.8461 0.986328 101.616 37.0766 101.616 60.6863C101.616 84.296 86.3133 101.143 62.3131 101.143V101.146Z" fill="url(#paint0_radial_98_5136)"/>
    <path opacity="0.03" d="M62.5128 100.984C38.6775 100.984 2.00159 75.8041 2.00159 42.0514C2.00159 5.25271 23.518 1.97266 47.3564 1.97266C71.1948 1.97266 101.479 37.3825 101.479 60.8299C101.479 84.2774 86.3512 100.98 62.5128 100.98V100.984Z" fill="url(#paint1_radial_98_5136)"/>
    <path opacity="0.05" d="M62.7126 100.824C39.0392 100.824 3.00085 76.0506 3.00085 42.8129C3.00085 6.63525 24.1938 2.96191 47.8672 2.96191C71.5407 2.96191 101.339 37.6883 101.339 60.9766C101.339 84.2648 86.3861 100.824 62.7126 100.824Z" fill="url(#paint2_radial_98_5136)"/>
    <path opacity="0.06" d="M62.9157 100.665C39.4072 100.665 4.0033 76.2939 4.0033 43.5743C4.0033 8.01771 24.8726 3.95117 48.3811 3.95117C71.8896 3.95117 101.203 37.9941 101.203 61.1231C101.203 84.2522 86.4242 100.665 62.9125 100.665H62.9157Z" fill="url(#paint3_radial_98_5136)"/>
    <path opacity="0.08" d="M63.1155 100.506C39.7687 100.506 5.00244 76.5404 5.00244 44.3357C5.00244 9.40025 25.5482 4.94043 48.8918 4.94043C72.2353 4.94043 101.063 38.303 101.063 61.2698C101.063 84.2366 86.459 100.509 63.1123 100.509L63.1155 100.506Z" fill="url(#paint4_radial_98_5136)"/>
    <path opacity="0.1" d="M63.3185 100.343C40.1368 100.343 6.00488 76.7805 6.00488 45.0908C6.00488 10.7764 26.2239 5.92334 49.4088 5.92334C72.5938 5.92334 100.93 38.6024 100.93 61.4101C100.93 84.2177 86.5003 100.343 63.3154 100.343H63.3185Z" fill="url(#paint5_radial_98_5136)"/>
    <path opacity="0.11" d="M63.5184 100.184C40.4984 100.184 7.00732 77.027 7.00732 45.8522C7.00732 12.1589 26.9028 6.9126 49.9228 6.9126C72.9428 6.9126 100.797 38.9082 100.797 61.5566C100.797 84.2051 86.5416 100.184 63.5216 100.184H63.5184Z" fill="url(#paint6_radial_98_5136)"/>
    <path opacity="0.13" d="M63.7183 100.025C40.8632 100.025 8.00647 77.2708 8.00647 46.6141C8.00647 13.5418 27.5784 7.90234 50.4334 7.90234C73.2885 7.90234 100.657 39.2176 100.657 61.7006C100.657 84.1837 86.5733 100.025 63.7183 100.025Z" fill="url(#paint7_radial_98_5136)"/>
    <path opacity="0.15" d="M63.9213 99.8628C41.228 99.8628 9.00891 77.5108 9.00891 47.3722C9.00891 14.9209 28.2573 8.88818 50.9474 8.88818C73.6375 8.88818 100.521 39.52 100.521 61.8438C100.521 84.1677 86.6114 99.8628 63.9213 99.8628Z" fill="url(#paint8_radial_98_5136)"/>
    <path opacity="0.16" d="M64.1211 99.7037C41.5928 99.7037 10.0081 77.7575 10.0081 48.1306C10.0081 16.3005 28.9297 9.87451 51.4612 9.87451C73.9927 9.87451 100.385 39.8228 100.385 61.9875C100.385 84.1522 86.6494 99.7037 64.1211 99.7037Z" fill="url(#paint9_radial_98_5136)"/>
    <path opacity="0.18" d="M64.3242 99.5445C41.9608 99.5445 11.0105 78.0008 11.0105 48.8921C11.0105 17.683 29.6086 10.8638 51.9752 10.8638C74.3417 10.8638 100.251 40.1317 100.251 62.1341C100.251 84.1365 86.6907 99.5445 64.3273 99.5445H64.3242Z" fill="url(#paint10_radial_98_5136)"/>
    <path opacity="0.19" d="M64.5239 99.3855C42.3223 99.3855 12.0096 78.2475 12.0096 49.6537C12.0096 19.0656 30.2841 11.8501 52.4857 11.8501C74.6873 11.8501 100.112 40.4346 100.112 62.2778C100.112 84.1211 86.7255 99.3855 64.5239 99.3855Z" fill="url(#paint11_radial_98_5136)"/>
    <path opacity="0.21" d="M64.7238 99.2233C42.6872 99.2233 13.0089 78.4879 13.0089 50.4122C13.0089 20.4452 30.9599 12.8364 52.9965 12.8364C75.0332 12.8364 99.9723 40.7374 99.9723 62.4215C99.9723 84.1056 86.7605 99.2233 64.7238 99.2233Z" fill="url(#paint12_radial_98_5136)"/>
    <path opacity="0.23" d="M64.9268 99.0638C43.0519 99.0638 14.0112 78.731 14.0112 51.1702C14.0112 21.8243 31.6354 13.8223 53.5134 13.8223C75.3915 13.8223 99.839 41.0428 99.839 62.5647C99.839 84.0865 86.8016 99.0638 64.9268 99.0638Z" fill="url(#paint13_radial_98_5136)"/>
    <path opacity="0.24" d="M65.1267 98.905C43.4167 98.905 15.0105 78.978 15.0105 51.9322C15.0105 23.2073 32.3112 14.812 54.0243 14.812C75.7374 14.812 99.7026 41.3492 99.7026 62.7118C99.7026 84.0745 86.8397 98.905 65.1298 98.905H65.1267Z" fill="url(#paint14_radial_98_5136)"/>
    <path opacity="0.26" d="M65.3296 98.7423C43.7815 98.7423 16.0128 79.2179 16.0128 52.6901C16.0128 24.5863 32.99 15.7979 54.5382 15.7979C76.0863 15.7979 99.5662 41.6546 99.5662 62.8519C99.5662 84.0491 86.8777 98.7423 65.3296 98.7423Z" fill="url(#paint15_radial_98_5136)"/>
    <path opacity="0.27" d="M65.5295 98.5836C44.1463 98.5836 17.0121 79.4649 17.0121 53.4521C17.0121 25.9693 33.6625 16.7876 55.0488 16.7876C76.4352 16.7876 99.4267 41.9609 99.4267 62.9989C99.4267 84.037 86.9127 98.5836 65.5263 98.5836H65.5295Z" fill="url(#paint16_radial_98_5136)"/>
    <path opacity="0.29" d="M65.7294 98.424C44.508 98.424 18.0114 79.7079 18.0114 54.2101C18.0114 27.3484 34.3382 17.7734 55.5597 17.7734C76.7811 17.7734 99.2871 42.2632 99.2871 63.1421C99.2871 84.021 86.9476 98.4209 65.7262 98.4209L65.7294 98.424Z" fill="url(#paint17_radial_98_5136)"/>
    <path opacity="0.31" d="M65.9324 98.2653C44.876 98.2653 19.0138 79.9518 19.0138 54.972C19.0138 28.7314 35.017 18.7632 56.0767 18.7632C77.1363 18.7632 99.1571 42.5726 99.1571 63.2893C99.1571 84.0059 86.9921 98.2653 65.9324 98.2653Z" fill="url(#paint18_radial_98_5136)"/>
    <path opacity="0.32" d="M66.1322 98.1026C45.2375 98.1026 20.0129 80.1949 20.0129 55.73C20.0129 31.2652 35.6927 19.749 56.5874 19.749C77.4821 19.749 99.0175 42.875 99.0175 63.4324C99.0175 83.9899 87.0269 98.1026 66.1322 98.1026Z" fill="url(#paint19_radial_98_5136)"/>
    <path opacity="0.34" d="M66.3352 97.9434C45.6055 97.9434 21.0153 80.4382 21.0153 56.4914C21.0153 32.5447 36.3683 20.7383 57.1012 20.7383C77.8341 20.7383 98.881 43.1807 98.881 63.579C98.881 83.9773 87.065 97.9465 66.3321 97.9465L66.3352 97.9434Z" fill="url(#paint20_radial_98_5136)"/>
    <path opacity="0.35" d="M66.535 97.7844C45.9671 97.7844 22.0177 80.6849 22.0177 57.25C22.0177 33.8151 37.0471 21.7246 57.6151 21.7246C78.1831 21.7246 98.7447 43.4868 98.7447 63.7228C98.7447 83.9587 87.103 97.7844 66.535 97.7844Z" fill="url(#paint21_radial_98_5136)"/>
    <path opacity="0.37" d="M66.7349 97.6222C46.3319 97.6222 23.0168 80.9253 23.0168 58.0085C23.0168 35.0916 37.7227 22.7109 58.1289 22.7109C78.5351 22.7109 98.6114 43.7896 98.6114 63.8664C98.6114 83.9432 87.1442 97.6253 66.7381 97.6253L66.7349 97.6222Z" fill="url(#paint22_radial_98_5136)"/>
    <path opacity="0.39" d="M66.9379 97.463C46.6999 97.463 24.0193 81.1718 24.0193 58.7699C24.0193 36.368 38.4017 23.7002 58.6429 23.7002C78.8841 23.7002 98.4751 44.0953 98.4751 64.0099C98.4751 83.9244 87.1824 97.463 66.9411 97.463H66.9379Z" fill="url(#paint23_radial_98_5136)"/>
    <path opacity="0.4" d="M67.1378 97.3039C47.0616 97.3039 25.0186 81.4154 25.0186 59.5315C25.0186 37.6477 39.0741 24.6865 59.1536 24.6865C79.233 24.6865 98.3355 44.4014 98.3355 64.1536C98.3355 83.9059 87.2141 97.3039 67.1378 97.3039Z" fill="url(#paint24_radial_98_5136)"/>
    <path opacity="0.42" d="M67.3376 97.1447C47.4263 97.1447 26.0177 81.6587 26.0177 60.293C26.0177 38.9272 39.7498 25.6758 59.6643 25.6758C79.5788 25.6758 98.1959 44.7071 98.1959 64.3002C98.1959 83.8933 87.2489 97.1447 67.3376 97.1447Z" fill="url(#paint25_radial_98_5136)"/>
    <path opacity="0.44" d="M67.5407 96.9822C47.7911 96.9822 27.0201 81.9019 27.0201 61.048C27.0201 40.1941 40.4286 26.6587 60.1781 26.6587C79.9277 26.6587 98.0627 45.0065 98.0627 64.4404C98.0627 83.8744 87.2902 96.9791 67.5407 96.9791V96.9822Z" fill="url(#paint26_radial_98_5136)"/>
    <path opacity="0.45" d="M67.7404 96.823C48.1558 96.823 28.0193 82.1454 28.0193 61.8095C28.0193 41.4736 41.1042 27.6479 60.692 27.6479C80.2798 27.6479 97.9262 45.3155 97.9262 64.5871C97.9262 83.8587 87.3282 96.823 67.7436 96.823H67.7404Z" fill="url(#paint27_radial_98_5136)"/>
    <path opacity="0.47" d="M67.9436 96.6642C48.5207 96.6642 29.0217 82.3923 29.0217 62.5714C29.0217 42.7505 41.7799 28.6377 61.2059 28.6377C80.6319 28.6377 97.7899 45.6217 97.7899 64.7342C97.7899 83.8466 87.3664 96.6642 67.9436 96.6642Z" fill="url(#paint28_radial_98_5136)"/>
    <path opacity="0.48" d="M68.1433 96.5015C48.8854 96.5015 30.0209 82.6322 30.0209 63.3294C30.0209 44.0265 42.4555 29.6235 61.7166 29.6235C80.9776 29.6235 97.6502 45.9272 97.6502 64.8774C97.6502 83.8275 87.4011 96.5047 68.1433 96.5047V96.5015Z" fill="url(#paint29_radial_98_5136)"/>
    <path opacity="0.5" d="M68.3432 96.3426C49.2471 96.3426 31.0201 82.8758 31.0201 64.0879C31.0201 45.3 43.1313 30.6099 62.2274 30.6099C81.3235 30.6099 97.5139 46.23 97.5139 65.0179C97.5139 83.8058 87.4393 96.3394 68.3432 96.3394V96.3426Z" fill="url(#paint30_radial_98_5136)"/>
  </g>
  <path d="M64.6604 105C42.3826 105 24.3207 87.2325 24.3207 65.3081C24.3207 43.3837 42.3826 25.6226 64.6604 25.6226C86.9381 25.6226 105 43.393 105 65.3081C105 87.2231 86.9381 105 64.6604 105Z" fill="url(#paint31_radial_98_5136)"/>
  <path d="M64.6604 103.149C43.4232 103.149 26.2018 86.209 26.2018 65.3114C26.2018 44.4137 43.42 27.4766 64.6604 27.4766C85.9009 27.4766 103.116 44.4169 103.116 65.3114C103.116 86.2059 85.9009 103.149 64.6604 103.149Z" fill="url(#paint32_radial_98_5136)"/>
  <path d="M64.6605 95.7307C47.585 95.7307 33.7419 82.111 33.7419 65.308C33.7419 48.505 47.585 34.8916 64.6605 34.8916C81.736 34.8916 95.579 48.5081 95.579 65.308C95.579 82.1079 81.736 95.7307 64.6605 95.7307Z" fill="url(#paint33_radial_98_5136)"/>
  <path d="M64.6604 92.9812C49.1297 92.9812 36.5365 80.5911 36.5365 65.308C36.5365 50.0249 49.1297 37.6411 64.6604 37.6411C80.191 37.6411 92.7843 50.028 92.7843 65.308C92.7843 80.588 80.1942 92.9812 64.6604 92.9812Z" fill="url(#paint34_radial_98_5136)"/>
  <path d="M64.6604 86.9701C52.5017 86.9701 42.646 77.2735 42.646 65.311C42.646 53.3485 52.5017 43.6519 64.6604 43.6519C76.8191 43.6519 86.6748 53.3485 86.6748 65.311C86.6748 77.2735 76.8191 86.9701 64.6604 86.9701Z" fill="url(#paint35_radial_98_5136)"/>
  <path style="mix-blend-mode:multiply" d="M64.6604 86.9701C52.5017 86.9701 42.646 77.2735 42.646 65.311C42.646 53.3485 52.5017 43.6519 64.6604 43.6519C76.8191 43.6519 86.6748 53.3485 86.6748 65.311C86.6748 77.2735 76.8191 86.9701 64.6604 86.9701Z" fill="url(#paint36_radial_98_5136)"/>
  <path style="mix-blend-mode:screen" d="M64.6573 93.3337C48.5652 93.3337 35.5944 80.2103 36.1939 64.2437C36.7395 49.7189 48.7554 37.8751 63.5153 37.3071C79.7628 36.6829 93.1397 49.4599 93.1397 65.3048C93.1397 81.1497 80.3846 93.3306 64.6573 93.3306V93.3337Z" fill="url(#paint37_radial_98_5136)"/>
  <path d="M59.2804 62.0124C60.4351 63.5104 61.1487 65.3299 61.3676 67.2586H64.0037V59.6061H63.014C62.849 59.6061 62.6841 59.447 62.6841 59.2847C62.6841 59.1224 62.849 58.9632 63.014 58.9632H63.8927C63.8927 58.9102 63.8387 58.8571 63.8387 58.8041C63.8387 57.8928 63.125 57.1999 62.1892 57.1999C62.0243 57.1999 61.8593 57.0407 61.8593 56.8785C61.8593 56.7162 62.0243 56.557 62.1892 56.557C63.0679 56.557 63.8927 57.0376 64.2765 57.7867C64.6603 57.0376 65.4311 56.557 66.3637 56.557C66.5286 56.557 66.6936 56.7162 66.6936 56.8785C66.6936 57.0407 66.5286 57.1999 66.3637 57.1999C65.4311 57.1999 64.7142 57.8959 64.7142 58.8041V58.9632H65.539C65.7039 58.9632 65.8689 59.1224 65.8689 59.2847C65.8689 59.447 65.7039 59.6061 65.539 59.6061H64.7142V67.3117H67.2424C67.4612 65.3861 68.2321 63.5666 69.3835 62.0654C69.4946 61.9593 69.5485 61.8501 69.6596 61.7439C70.7571 60.4581 71.3629 58.801 71.3629 57.0876C71.3629 53.1802 68.2321 50.0218 64.3875 49.9688H64.3336C62.5223 49.9688 60.8189 50.6647 59.4993 51.9474C58.0718 53.2863 57.301 55.1588 57.301 57.0844C57.301 58.7978 57.9069 60.402 59.0044 61.6878C59.1154 61.7408 59.1694 61.9031 59.2804 62.0093V62.0124Z" fill="#003081"/>
  <path d="M64.5525 69.5058H68.1243L68.1783 69.4528L68.2322 69.3997L68.2861 69.3467V69.2936V68.9722V68.9191V68.8661V68.813C68.2861 68.3854 67.9562 68.064 67.5723 68.064H60.7618C60.378 68.064 60.0481 68.3854 60.0481 68.813V68.8661V68.9191V68.9722V69.2936V69.3467L60.102 69.3997L60.156 69.4528L60.2099 69.5058H61.1996C61.3646 69.5058 61.5294 69.665 61.5294 69.8273V71.0039C61.5294 71.9152 62.2432 72.608 63.2329 72.608H65.1552C66.1449 72.608 66.8586 71.9121 66.8586 71.0039V70.1488H64.5525C64.3875 70.1488 64.2226 69.9896 64.2226 69.8273C64.2226 69.665 64.3875 69.5058 64.5525 69.5058Z" fill="#003081"/>
  <path d="M69.1678 69.1313C69.1678 69.1667 69.1498 69.2021 69.1139 69.2374V69.2905C69.1139 69.2905 69.1138 69.3436 69.0599 69.3436V69.3966C68.895 69.665 68.6761 69.8773 68.4572 70.0395C68.4033 70.0395 68.4033 70.0926 68.3462 70.0926H67.6325V70.9477C67.6325 72.2335 66.5888 73.2479 65.2692 73.2479H63.3469C62.0273 73.2479 60.9837 72.2304 60.9837 70.9477V70.0926H60.27C60.2161 70.0926 60.2161 70.0395 60.159 70.0395C59.883 69.8804 59.6641 69.665 59.5531 69.3966V69.3436C59.5531 69.3436 59.5531 69.2905 59.4992 69.2905V69.2374C59.4992 69.2374 59.4992 69.1844 59.4453 69.1313C56.0955 69.1313 53.3485 71.806 53.3485 75.0705V78.8155H56.8093V74.9612C56.8093 74.8021 56.9742 74.6398 57.1392 74.6398C57.3041 74.6398 57.4151 74.7989 57.4151 74.9612V78.8155H71.1504V74.9612C71.1504 74.8021 71.3153 74.6398 71.4803 74.6398C71.6452 74.6398 71.8102 74.7989 71.8102 74.9612V78.8155H75.2709V75.0705C75.2709 71.806 72.5239 69.1313 69.1741 69.1313H69.1678Z" fill="#003081"/>
  <path d="M77.133 54.8966C77.022 54.7374 76.8031 54.6812 76.6381 54.7905C76.4732 54.8966 76.4192 55.1119 76.5271 55.2711C77.133 56.2354 77.4598 57.2529 77.4598 58.3202C77.4598 59.3876 77.1298 60.4612 76.5271 61.4255C76.4161 61.5847 76.4732 61.8 76.6381 61.9061C76.6921 61.9592 76.7492 61.9592 76.8031 61.9592C76.9141 61.9592 77.0219 61.9061 77.079 61.8C77.7388 60.7296 78.1227 59.553 78.1227 58.3733C78.1766 57.1436 77.7928 55.9639 77.133 54.8935V54.8966Z" fill="#003081"/>
  <path d="M74.773 56.1265C74.608 56.2326 74.5542 56.448 74.662 56.6072C74.9919 57.1408 75.1569 57.7307 75.1569 58.3205C75.1569 58.9104 74.9919 59.4971 74.662 60.087C74.551 60.2461 74.608 60.4615 74.773 60.5676C74.8269 60.6207 74.884 60.6206 74.9379 60.6206C75.049 60.6206 75.1569 60.5676 75.2139 60.4615C75.5978 59.8186 75.7627 59.1226 75.7627 58.3736C75.7627 57.6776 75.5438 56.9817 75.2139 56.3388C75.1029 56.0704 74.9379 56.0173 74.773 56.1234V56.1265Z" fill="#003081"/>
  <path d="M51.9179 54.7876C51.7529 54.6815 51.5341 54.7346 51.423 54.8937C50.7632 55.9642 50.3794 57.1408 50.3794 58.3205C50.3794 59.5002 50.7632 60.6768 51.423 61.7441C51.477 61.8502 51.5879 61.9033 51.699 61.9033C51.7529 61.9033 51.81 61.9033 51.8639 61.8503C52.0289 61.7441 52.0828 61.5288 51.975 61.3696C51.3691 60.4053 51.0424 59.391 51.0424 58.3205C51.0424 57.25 51.3723 56.1796 51.975 55.2152C52.086 55.1091 52.086 54.8937 51.9211 54.7876H51.9179Z" fill="#003081"/>
  <path d="M53.6214 60.5674C53.6753 60.5674 53.7324 60.5674 53.7863 60.5143C53.9513 60.4082 54.0052 60.1929 53.8974 60.0337C53.5675 59.5 53.4025 58.9102 53.4025 58.3203C53.4025 57.7305 53.5675 57.1437 53.8974 56.5539C54.0084 56.3947 53.9513 56.1794 53.7863 56.0733C53.6214 55.9672 53.4025 56.0202 53.2914 56.1794C52.9076 56.8223 52.7427 57.5183 52.7427 58.2673C52.7427 58.9632 52.9615 59.6592 53.2914 60.3021C53.4025 60.5174 53.5103 60.5705 53.6214 60.5705V60.5674Z" fill="#003081"/>
  <defs>
    <radialGradient id="paint0_radial_98_5136" cx="0" cy="0" r="1" gradientUnits="userSpaceOnUse" gradientTransform="translate(51.309 51.0676) scale(50.6047 49.7879)">
      <stop stop-color="#47C1F1"/>
      <stop offset="0.04" stop-color="#44B8E7"/>
      <stop offset="0.27" stop-color="#3888B7"/>
      <stop offset="0.49" stop-color="#2E6291"/>
      <stop offset="0.69" stop-color="#274776"/>
      <stop offset="0.87" stop-color="#233665"/>
      <stop offset="1" stop-color="#223160"/>
    </radialGradient>
    <radialGradient id="paint1_radial_98_5136" cx="0" cy="0" r="1" gradientUnits="userSpaceOnUse" gradientTransform="translate(51.7403 51.4797) scale(50.0274 49.2199)">
      <stop stop-color="#47C1F1"/>
      <stop offset="0.04" stop-color="#44B8E7"/>
      <stop offset="0.27" stop-color="#3888B7"/>
      <stop offset="0.49" stop-color="#2E6291"/>
      <stop offset="0.69" stop-color="#274776"/>
      <stop offset="0.87" stop-color="#233665"/>
      <stop offset="1" stop-color="#223160"/>
    </radialGradient>
    <radialGradient id="paint2_radial_98_5136" cx="0" cy="0" r="1" gradientUnits="userSpaceOnUse" gradientTransform="translate(52.1717 51.8947) scale(49.4532 48.655)">
      <stop stop-color="#47C1F1"/>
      <stop offset="0.04" stop-color="#44B8E7"/>
      <stop offset="0.27" stop-color="#3888B7"/>
      <stop offset="0.49" stop-color="#2E6291"/>
      <stop offset="0.69" stop-color="#274776"/>
      <stop offset="0.87" stop-color="#233665"/>
      <stop offset="1" stop-color="#223160"/>
    </radialGradient>
    <radialGradient id="paint3_radial_98_5136" cx="0" cy="0" r="1" gradientUnits="userSpaceOnUse" gradientTransform="translate(52.6032 52.3066) scale(48.8758 48.087)">
      <stop stop-color="#47C1F1"/>
      <stop offset="0.04" stop-color="#44B8E7"/>
      <stop offset="0.27" stop-color="#3888B7"/>
      <stop offset="0.49" stop-color="#2E6291"/>
      <stop offset="0.69" stop-color="#274776"/>
      <stop offset="0.87" stop-color="#233665"/>
      <stop offset="1" stop-color="#223160"/>
    </radialGradient>
    <radialGradient id="paint4_radial_98_5136" cx="0" cy="0" r="1" gradientUnits="userSpaceOnUse" gradientTransform="translate(53.0345 52.7216) scale(48.3017 47.5221)">
      <stop stop-color="#47C1F1"/>
      <stop offset="0.04" stop-color="#44B8E7"/>
      <stop offset="0.27" stop-color="#3888B7"/>
      <stop offset="0.49" stop-color="#2E6291"/>
      <stop offset="0.69" stop-color="#274776"/>
      <stop offset="0.87" stop-color="#233665"/>
      <stop offset="1" stop-color="#223160"/>
    </radialGradient>
    <radialGradient id="paint5_radial_98_5136" cx="0" cy="0" r="1" gradientUnits="userSpaceOnUse" gradientTransform="translate(53.4692 53.1334) scale(47.7244 46.9541)">
      <stop stop-color="#47C1F1"/>
      <stop offset="0.04" stop-color="#44B8E7"/>
      <stop offset="0.27" stop-color="#3888B7"/>
      <stop offset="0.49" stop-color="#2E6291"/>
      <stop offset="0.69" stop-color="#274776"/>
      <stop offset="0.87" stop-color="#233665"/>
      <stop offset="1" stop-color="#223160"/>
    </radialGradient>
    <radialGradient id="paint6_radial_98_5136" cx="0" cy="0" r="1" gradientUnits="userSpaceOnUse" gradientTransform="translate(53.9006 53.5484) scale(47.1471 46.3861)">
      <stop stop-color="#47C1F1"/>
      <stop offset="0.04" stop-color="#44B8E7"/>
      <stop offset="0.27" stop-color="#3888B7"/>
      <stop offset="0.49" stop-color="#2E6291"/>
      <stop offset="0.69" stop-color="#274776"/>
      <stop offset="0.87" stop-color="#233665"/>
      <stop offset="1" stop-color="#223160"/>
    </radialGradient>
    <radialGradient id="paint7_radial_98_5136" cx="0" cy="0" r="1" gradientUnits="userSpaceOnUse" gradientTransform="translate(54.332 53.9608) scale(46.5729 45.8212)">
      <stop stop-color="#47C1F1"/>
      <stop offset="0.04" stop-color="#44B8E7"/>
      <stop offset="0.27" stop-color="#3888B7"/>
      <stop offset="0.49" stop-color="#2E6291"/>
      <stop offset="0.69" stop-color="#274776"/>
      <stop offset="0.87" stop-color="#233665"/>
      <stop offset="1" stop-color="#223160"/>
    </radialGradient>
    <radialGradient id="paint8_radial_98_5136" cx="0" cy="0" r="1" gradientUnits="userSpaceOnUse" gradientTransform="translate(54.7634 54.3755) scale(45.9956 45.2532)">
      <stop stop-color="#47C1F1"/>
      <stop offset="0.04" stop-color="#44B8E7"/>
      <stop offset="0.27" stop-color="#3888B7"/>
      <stop offset="0.49" stop-color="#2E6291"/>
      <stop offset="0.69" stop-color="#274776"/>
      <stop offset="0.87" stop-color="#233665"/>
      <stop offset="1" stop-color="#223160"/>
    </radialGradient>
    <radialGradient id="paint9_radial_98_5136" cx="0" cy="0" r="1" gradientUnits="userSpaceOnUse" gradientTransform="translate(55.1947 54.7907) scale(45.4214 44.6883)">
      <stop stop-color="#47C1F1"/>
      <stop offset="0.04" stop-color="#44B8E7"/>
      <stop offset="0.27" stop-color="#3888B7"/>
      <stop offset="0.49" stop-color="#2E6291"/>
      <stop offset="0.69" stop-color="#274776"/>
      <stop offset="0.87" stop-color="#233665"/>
      <stop offset="1" stop-color="#223160"/>
    </radialGradient>
    <radialGradient id="paint10_radial_98_5136" cx="0" cy="0" r="1" gradientUnits="userSpaceOnUse" gradientTransform="translate(55.6294 55.2026) scale(44.8441 44.1203)">
      <stop stop-color="#47C1F1"/>
      <stop offset="0.04" stop-color="#44B8E7"/>
      <stop offset="0.27" stop-color="#3888B7"/>
      <stop offset="0.49" stop-color="#2E6291"/>
      <stop offset="0.69" stop-color="#274776"/>
      <stop offset="0.87" stop-color="#233665"/>
      <stop offset="1" stop-color="#223160"/>
    </radialGradient>
    <radialGradient id="paint11_radial_98_5136" cx="0" cy="0" r="1" gradientUnits="userSpaceOnUse" gradientTransform="translate(56.0607 55.6178) scale(44.27 43.5555)">
      <stop stop-color="#47C1F1"/>
      <stop offset="0.04" stop-color="#44B8E7"/>
      <stop offset="0.27" stop-color="#3888B7"/>
      <stop offset="0.49" stop-color="#2E6291"/>
      <stop offset="0.69" stop-color="#274776"/>
      <stop offset="0.87" stop-color="#233665"/>
      <stop offset="1" stop-color="#223160"/>
    </radialGradient>
    <radialGradient id="paint12_radial_98_5136" cx="0" cy="0" r="1" gradientUnits="userSpaceOnUse" gradientTransform="translate(56.4922 56.0299) scale(43.6927 42.9875)">
      <stop stop-color="#47C1F1"/>
      <stop offset="0.04" stop-color="#44B8E7"/>
      <stop offset="0.27" stop-color="#3888B7"/>
      <stop offset="0.49" stop-color="#2E6291"/>
      <stop offset="0.69" stop-color="#274776"/>
      <stop offset="0.87" stop-color="#233665"/>
      <stop offset="1" stop-color="#223160"/>
    </radialGradient>
    <radialGradient id="paint13_radial_98_5136" cx="0" cy="0" r="1" gradientUnits="userSpaceOnUse" gradientTransform="translate(56.9235 56.4446) scale(43.1153 42.4194)">
      <stop stop-color="#47C1F1"/>
      <stop offset="0.04" stop-color="#44B8E7"/>
      <stop offset="0.27" stop-color="#3888B7"/>
      <stop offset="0.49" stop-color="#2E6291"/>
      <stop offset="0.69" stop-color="#274776"/>
      <stop offset="0.87" stop-color="#233665"/>
      <stop offset="1" stop-color="#223160"/>
    </radialGradient>
    <radialGradient id="paint14_radial_98_5136" cx="0" cy="0" r="1" gradientUnits="userSpaceOnUse" gradientTransform="translate(57.355 56.857) scale(42.5412 41.8546)">
      <stop stop-color="#47C1F1"/>
      <stop offset="0.04" stop-color="#44B8E7"/>
      <stop offset="0.27" stop-color="#3888B7"/>
      <stop offset="0.49" stop-color="#2E6291"/>
      <stop offset="0.69" stop-color="#274776"/>
      <stop offset="0.87" stop-color="#233665"/>
      <stop offset="1" stop-color="#223160"/>
    </radialGradient>
    <radialGradient id="paint15_radial_98_5136" cx="0" cy="0" r="1" gradientUnits="userSpaceOnUse" gradientTransform="translate(57.7895 57.2717) scale(41.9639 41.2866)">
      <stop stop-color="#47C1F1"/>
      <stop offset="0.04" stop-color="#44B8E7"/>
      <stop offset="0.27" stop-color="#3888B7"/>
      <stop offset="0.49" stop-color="#2E6291"/>
      <stop offset="0.69" stop-color="#274776"/>
      <stop offset="0.87" stop-color="#233665"/>
      <stop offset="1" stop-color="#223160"/>
    </radialGradient>
    <radialGradient id="paint16_radial_98_5136" cx="0" cy="0" r="1" gradientUnits="userSpaceOnUse" gradientTransform="translate(58.221 57.684) scale(41.3897 40.7217)">
      <stop stop-color="#47C1F1"/>
      <stop offset="0.04" stop-color="#44B8E7"/>
      <stop offset="0.27" stop-color="#3888B7"/>
      <stop offset="0.49" stop-color="#2E6291"/>
      <stop offset="0.69" stop-color="#274776"/>
      <stop offset="0.87" stop-color="#233665"/>
      <stop offset="1" stop-color="#223160"/>
    </radialGradient>
    <radialGradient id="paint17_radial_98_5136" cx="0" cy="0" r="1" gradientUnits="userSpaceOnUse" gradientTransform="translate(58.6524 58.0987) scale(40.8124 40.1536)">
      <stop stop-color="#47C1F1"/>
      <stop offset="0.04" stop-color="#44B8E7"/>
      <stop offset="0.27" stop-color="#3888B7"/>
      <stop offset="0.49" stop-color="#2E6291"/>
      <stop offset="0.69" stop-color="#274776"/>
      <stop offset="0.87" stop-color="#233665"/>
      <stop offset="1" stop-color="#223160"/>
    </radialGradient>
    <radialGradient id="paint18_radial_98_5136" cx="0" cy="0" r="1" gradientUnits="userSpaceOnUse" gradientTransform="translate(59.0839 58.5142) scale(40.2382 39.5888)">
      <stop stop-color="#47C1F1"/>
      <stop offset="0.04" stop-color="#44B8E7"/>
      <stop offset="0.27" stop-color="#3888B7"/>
      <stop offset="0.49" stop-color="#2E6291"/>
      <stop offset="0.69" stop-color="#274776"/>
      <stop offset="0.87" stop-color="#233665"/>
      <stop offset="1" stop-color="#223160"/>
    </radialGradient>
    <radialGradient id="paint19_radial_98_5136" cx="0" cy="0" r="1" gradientUnits="userSpaceOnUse" gradientTransform="translate(59.5152 58.9258) scale(39.6609 39.0208)">
      <stop stop-color="#47C1F1"/>
      <stop offset="0.04" stop-color="#44B8E7"/>
      <stop offset="0.27" stop-color="#3888B7"/>
      <stop offset="0.49" stop-color="#2E6291"/>
      <stop offset="0.69" stop-color="#274776"/>
      <stop offset="0.87" stop-color="#233665"/>
      <stop offset="1" stop-color="#223160"/>
    </radialGradient>
    <radialGradient id="paint20_radial_98_5136" cx="0" cy="0" r="1" gradientUnits="userSpaceOnUse" gradientTransform="translate(59.9497 59.3408) scale(39.0867 38.4559)">
      <stop stop-color="#47C1F1"/>
      <stop offset="0.04" stop-color="#44B8E7"/>
      <stop offset="0.27" stop-color="#3888B7"/>
      <stop offset="0.49" stop-color="#2E6291"/>
      <stop offset="0.69" stop-color="#274776"/>
      <stop offset="0.87" stop-color="#233665"/>
      <stop offset="1" stop-color="#223160"/>
    </radialGradient>
    <radialGradient id="paint21_radial_98_5136" cx="0" cy="0" r="1" gradientUnits="userSpaceOnUse" gradientTransform="translate(60.3812 59.7529) scale(38.5094 37.8879)">
      <stop stop-color="#47C1F1"/>
      <stop offset="0.04" stop-color="#44B8E7"/>
      <stop offset="0.27" stop-color="#3888B7"/>
      <stop offset="0.49" stop-color="#2E6291"/>
      <stop offset="0.69" stop-color="#274776"/>
      <stop offset="0.87" stop-color="#233665"/>
      <stop offset="1" stop-color="#223160"/>
    </radialGradient>
    <radialGradient id="paint22_radial_98_5136" cx="0" cy="0" r="1" gradientUnits="userSpaceOnUse" gradientTransform="translate(60.8125 60.1681) scale(37.9321 37.3199)">
      <stop stop-color="#47C1F1"/>
      <stop offset="0.04" stop-color="#44B8E7"/>
      <stop offset="0.27" stop-color="#3888B7"/>
      <stop offset="0.49" stop-color="#2E6291"/>
      <stop offset="0.69" stop-color="#274776"/>
      <stop offset="0.87" stop-color="#233665"/>
      <stop offset="1" stop-color="#223160"/>
    </radialGradient>
    <radialGradient id="paint23_radial_98_5136" cx="0" cy="0" r="1" gradientUnits="userSpaceOnUse" gradientTransform="translate(61.244 60.58) scale(37.358 36.755)">
      <stop stop-color="#47C1F1"/>
      <stop offset="0.04" stop-color="#44B8E7"/>
      <stop offset="0.27" stop-color="#3888B7"/>
      <stop offset="0.49" stop-color="#2E6291"/>
      <stop offset="0.69" stop-color="#274776"/>
      <stop offset="0.87" stop-color="#233665"/>
      <stop offset="1" stop-color="#223160"/>
    </radialGradient>
    <radialGradient id="paint24_radial_98_5136" cx="0" cy="0" r="1" gradientUnits="userSpaceOnUse" gradientTransform="translate(61.6754 60.9952) scale(36.7806 36.187)">
      <stop stop-color="#47C1F1"/>
      <stop offset="0.04" stop-color="#44B8E7"/>
      <stop offset="0.27" stop-color="#3888B7"/>
      <stop offset="0.49" stop-color="#2E6291"/>
      <stop offset="0.69" stop-color="#274776"/>
      <stop offset="0.87" stop-color="#233665"/>
      <stop offset="1" stop-color="#223160"/>
    </radialGradient>
    <radialGradient id="paint25_radial_98_5136" cx="0" cy="0" r="1" gradientUnits="userSpaceOnUse" gradientTransform="translate(62.11 61.4071) scale(36.2065 35.6221)">
      <stop stop-color="#47C1F1"/>
      <stop offset="0.04" stop-color="#44B8E7"/>
      <stop offset="0.27" stop-color="#3888B7"/>
      <stop offset="0.49" stop-color="#2E6291"/>
      <stop offset="0.69" stop-color="#274776"/>
      <stop offset="0.87" stop-color="#233665"/>
      <stop offset="1" stop-color="#223160"/>
    </radialGradient>
    <radialGradient id="paint26_radial_98_5136" cx="0" cy="0" r="1" gradientUnits="userSpaceOnUse" gradientTransform="translate(62.5414 61.822) scale(35.6291 35.0541)">
      <stop stop-color="#47C1F1"/>
      <stop offset="0.04" stop-color="#44B8E7"/>
      <stop offset="0.27" stop-color="#3888B7"/>
      <stop offset="0.49" stop-color="#2E6291"/>
      <stop offset="0.69" stop-color="#274776"/>
      <stop offset="0.87" stop-color="#233665"/>
      <stop offset="1" stop-color="#223160"/>
    </radialGradient>
    <radialGradient id="paint27_radial_98_5136" cx="0" cy="0" r="1" gradientUnits="userSpaceOnUse" gradientTransform="translate(62.9727 62.237) scale(35.055 34.4892)">
      <stop stop-color="#47C1F1"/>
      <stop offset="0.04" stop-color="#44B8E7"/>
      <stop offset="0.27" stop-color="#3888B7"/>
      <stop offset="0.49" stop-color="#2E6291"/>
      <stop offset="0.69" stop-color="#274776"/>
      <stop offset="0.87" stop-color="#233665"/>
      <stop offset="1" stop-color="#223160"/>
    </radialGradient>
    <radialGradient id="paint28_radial_98_5136" cx="0" cy="0" r="1" gradientUnits="userSpaceOnUse" gradientTransform="translate(63.4042 62.6494) scale(34.4777 33.9212)">
      <stop stop-color="#47C1F1"/>
      <stop offset="0.04" stop-color="#44B8E7"/>
      <stop offset="0.27" stop-color="#3888B7"/>
      <stop offset="0.49" stop-color="#2E6291"/>
      <stop offset="0.69" stop-color="#274776"/>
      <stop offset="0.87" stop-color="#233665"/>
      <stop offset="1" stop-color="#223160"/>
    </radialGradient>
    <radialGradient id="paint29_radial_98_5136" cx="0" cy="0" r="1" gradientUnits="userSpaceOnUse" gradientTransform="translate(63.8356 63.0641) scale(33.9003 33.3532)">
      <stop stop-color="#47C1F1"/>
      <stop offset="0.04" stop-color="#44B8E7"/>
      <stop offset="0.27" stop-color="#3888B7"/>
      <stop offset="0.49" stop-color="#2E6291"/>
      <stop offset="0.69" stop-color="#274776"/>
      <stop offset="0.87" stop-color="#233665"/>
      <stop offset="1" stop-color="#223160"/>
    </radialGradient>
    <radialGradient id="paint30_radial_98_5136" cx="0" cy="0" r="1" gradientUnits="userSpaceOnUse" gradientTransform="translate(64.2702 63.4762) scale(33.3262 32.7883)">
      <stop stop-color="#47C1F1"/>
      <stop offset="0.04" stop-color="#44B8E7"/>
      <stop offset="0.27" stop-color="#3888B7"/>
      <stop offset="0.49" stop-color="#2E6291"/>
      <stop offset="0.69" stop-color="#274776"/>
      <stop offset="0.87" stop-color="#233665"/>
      <stop offset="1" stop-color="#223160"/>
    </radialGradient>
    <radialGradient id="paint31_radial_98_5136" cx="0" cy="0" r="1" gradientUnits="userSpaceOnUse" gradientTransform="translate(99.3918 109.989) rotate(90) scale(96.2396 97.8183)">
      <stop stop-color="#47C1F1"/>
      <stop offset="0.04" stop-color="#44B8E7"/>
      <stop offset="0.27" stop-color="#3888B7"/>
      <stop offset="0.49" stop-color="#2E6291"/>
      <stop offset="0.69" stop-color="#274776"/>
      <stop offset="0.87" stop-color="#233665"/>
      <stop offset="1" stop-color="#223160"/>
    </radialGradient>
    <radialGradient id="paint32_radial_98_5136" cx="0" cy="0" r="1" gradientUnits="userSpaceOnUse" gradientTransform="translate(88.575 93.7835) rotate(90) scale(91.747 93.2521)">
      <stop stop-color="#47C1F1"/>
      <stop offset="0.04" stop-color="#44B8E7"/>
      <stop offset="0.27" stop-color="#3888B7"/>
      <stop offset="0.49" stop-color="#2E6291"/>
      <stop offset="0.69" stop-color="#274776"/>
      <stop offset="0.87" stop-color="#233665"/>
      <stop offset="1" stop-color="#223160"/>
    </radialGradient>
    <radialGradient id="paint33_radial_98_5136" cx="0" cy="0" r="1" gradientUnits="userSpaceOnUse" gradientTransform="translate(38.1655 37.9751) rotate(90) scale(101.409 103.073)">
      <stop stop-color="#47C1F1"/>
      <stop offset="0.04" stop-color="#44B8E7"/>
      <stop offset="0.27" stop-color="#3888B7"/>
      <stop offset="0.49" stop-color="#2E6291"/>
      <stop offset="0.69" stop-color="#274776"/>
      <stop offset="0.87" stop-color="#233665"/>
      <stop offset="1" stop-color="#223160"/>
    </radialGradient>
    <radialGradient id="paint34_radial_98_5136" cx="0" cy="0" r="1" gradientUnits="userSpaceOnUse" gradientTransform="translate(31.0519 27.0612) rotate(90) scale(92.2464 93.7595)">
      <stop stop-color="#47C1F1"/>
      <stop offset="0.04" stop-color="#44B8E7"/>
      <stop offset="0.27" stop-color="#3888B7"/>
      <stop offset="0.49" stop-color="#2E6291"/>
      <stop offset="0.69" stop-color="#274776"/>
      <stop offset="0.87" stop-color="#233665"/>
      <stop offset="1" stop-color="#223160"/>
    </radialGradient>
    <radialGradient id="paint35_radial_98_5136" cx="0" cy="0" r="1" gradientUnits="userSpaceOnUse" gradientTransform="translate(88.0959 90.2471) rotate(90) scale(80.3089 81.6262)">
      <stop stop-color="#47C1F1"/>
      <stop offset="0.04" stop-color="#44B8E7"/>
      <stop offset="0.27" stop-color="#3888B7"/>
      <stop offset="0.49" stop-color="#2E6291"/>
      <stop offset="0.69" stop-color="#274776"/>
      <stop offset="0.87" stop-color="#233665"/>
      <stop offset="1" stop-color="#223160"/>
    </radialGradient>
    <radialGradient id="paint36_radial_98_5136" cx="0" cy="0" r="1" gradientUnits="userSpaceOnUse" gradientTransform="translate(61.9356 63.2855) rotate(90) scale(29.4552 29.9383)">
      <stop stop-color="#47C1F1"/>
      <stop offset="0.04" stop-color="#44B8E7"/>
      <stop offset="0.27" stop-color="#3888B7"/>
      <stop offset="0.49" stop-color="#2E6291"/>
      <stop offset="0.69" stop-color="#274776"/>
      <stop offset="0.87" stop-color="#233665"/>
      <stop offset="1" stop-color="#223160"/>
    </radialGradient>
    <radialGradient id="paint37_radial_98_5136" cx="0" cy="0" r="1" gradientUnits="userSpaceOnUse" gradientTransform="translate(69.3504 69.0795) rotate(90) scale(38.111 38.7362)">
      <stop stop-color="#47C1F1"/>
      <stop offset="0.04" stop-color="#44B8E7"/>
      <stop offset="0.27" stop-color="#3888B7"/>
      <stop offset="0.49" stop-color="#2E6291"/>
      <stop offset="0.69" stop-color="#274776"/>
      <stop offset="0.87" stop-color="#233665"/>
      <stop offset="1" stop-color="#223160"/>
    </radialGradient>
  </defs>
</svg>