<svg width="16" height="16" viewBox="0 0 16 16" fill="none" xmlns="http://www.w3.org/2000/svg">
<path d="M5.81454 7.09782C6.35122 7.79411 6.68293 8.63979 6.78466 9.53625H8.00988V5.97941H7.54989C7.47323 5.97941 7.39655 5.90543 7.39655 5.83C7.39655 5.75456 7.47323 5.6806 7.54989 5.6806H7.9583C7.9583 5.65594 7.93321 5.63128 7.93321 5.60662C7.93321 5.18305 7.60148 4.86101 7.16654 4.86101C7.08987 4.86101 7.0132 4.78703 7.0132 4.7116C7.0132 4.63617 7.08987 4.56218 7.16654 4.56218C7.57494 4.56218 7.9583 4.78558 8.1367 5.13372C8.3151 4.78558 8.67335 4.56218 9.10681 4.56218C9.18348 4.56218 9.26016 4.63617 9.26016 4.7116C9.26016 4.78703 9.18348 4.86101 9.10681 4.86101C8.67335 4.86101 8.34014 5.1845 8.34014 5.60662V5.6806H8.7235C8.80016 5.6806 8.87684 5.75456 8.87684 5.83C8.87684 5.90543 8.80016 5.97941 8.7235 5.97941H8.34014V9.56092H9.51522C9.61695 8.6659 9.97523 7.8202 10.5104 7.12247C10.562 7.07315 10.5871 7.02238 10.6387 6.97306C11.1489 6.37542 11.4304 5.60517 11.4304 4.80879C11.4304 2.99266 9.97523 1.52466 8.18828 1.5H8.16322C7.32135 1.5 6.52961 1.82349 5.91627 2.41968C5.2528 3.04199 4.89453 3.91233 4.89453 4.80734C4.89453 5.60371 5.17612 6.34932 5.68626 6.94696C5.73786 6.97162 5.76294 7.04705 5.81454 7.09637V7.09782Z" fill="#003081"/>
<path d="M8.26549 10.5807H9.92565L9.95074 10.556L9.97579 10.5314L10.0008 10.5067V10.482V10.3326V10.308V10.2833V10.2586C10.0008 10.0599 9.84751 9.9105 9.66911 9.9105H6.50361C6.32521 9.9105 6.17188 10.0599 6.17188 10.2586V10.2833V10.308V10.3326V10.482V10.5067L6.19693 10.5314L6.22202 10.556L6.24707 10.5807H6.70709C6.78376 10.5807 6.8604 10.6547 6.8604 10.7301V11.277C6.8604 11.7005 7.19215 12.0226 7.65216 12.0226H8.54564C9.00565 12.0226 9.33737 11.6991 9.33737 11.277V10.8795H8.26549C8.18882 10.8795 8.11215 10.8055 8.11215 10.7301C8.11215 10.6547 8.18882 10.5807 8.26549 10.5807Z" fill="#003081"/>
<path d="M10.4103 10.4066C10.4103 10.423 10.402 10.4395 10.3853 10.4559V10.4806C10.3853 10.4806 10.3853 10.5052 10.3602 10.5052V10.5299C10.2835 10.6546 10.1818 10.7533 10.0801 10.8287C10.055 10.8287 10.055 10.8534 10.0285 10.8534H9.69673V11.2508C9.69673 11.8485 9.21166 12.3199 8.59832 12.3199H7.70484C7.09149 12.3199 6.60643 11.847 6.60643 11.2508V10.8534H6.27469C6.24963 10.8534 6.24965 10.8287 6.22311 10.8287C6.09484 10.7547 5.99308 10.6546 5.94148 10.5299V10.5052C5.94148 10.5052 5.94149 10.4806 5.91643 10.4806V10.4559C5.91643 10.4559 5.91644 10.4312 5.89138 10.4066C4.33443 10.4066 3.05762 11.6497 3.05762 13.1671V14.9078H4.66615V13.1163C4.66615 13.0423 4.74283 12.9669 4.8195 12.9669C4.89616 12.9669 4.94775 13.0409 4.94775 13.1163V14.9078H11.3318V13.1163C11.3318 13.0423 11.4085 12.9669 11.4852 12.9669C11.5618 12.9669 11.6385 13.0409 11.6385 13.1163V14.9078H13.2471V13.1671C13.2471 11.6497 11.9702 10.4066 10.4133 10.4066H10.4103Z" fill="#003081"/>
<path d="M14.113 3.79049C14.0614 3.71651 13.9596 3.6904 13.883 3.74117C13.8063 3.79049 13.7812 3.89057 13.8314 3.96455C14.113 4.41278 14.2648 4.88568 14.2648 5.38178C14.2648 5.87788 14.1115 6.37689 13.8314 6.82512C13.7797 6.8991 13.8063 6.99918 13.883 7.0485C13.908 7.07316 13.9346 7.07316 13.9596 7.07316C14.0112 7.07316 14.0614 7.0485 14.0879 6.99918C14.3946 6.50163 14.573 5.95476 14.573 5.40644C14.598 4.83491 14.4197 4.28659 14.113 3.78904V3.79049Z" fill="#003081"/>
<path d="M13.0158 4.36201C12.9391 4.41133 12.914 4.51142 12.9642 4.5854C13.1175 4.83345 13.1942 5.10761 13.1942 5.38177C13.1942 5.65593 13.1175 5.92865 12.9642 6.20281C12.9126 6.27679 12.9391 6.37689 13.0158 6.42621C13.0408 6.45087 13.0674 6.45085 13.0924 6.45085C13.144 6.45085 13.1942 6.42619 13.2207 6.37687C13.3991 6.07805 13.4758 5.75458 13.4758 5.40644C13.4758 5.08296 13.3741 4.75948 13.2207 4.46066C13.1691 4.3359 13.0924 4.31124 13.0158 4.36056V4.36201Z" fill="#003081"/>
<path d="M2.39282 3.7397C2.31616 3.69038 2.21442 3.71503 2.16281 3.78901C1.85614 4.28656 1.67773 4.83343 1.67773 5.38175C1.67773 5.93007 1.85614 6.47694 2.16281 6.97304C2.18788 7.02236 2.23946 7.04702 2.29106 7.04702C2.31613 7.04702 2.34267 7.04703 2.36774 7.02237C2.4444 6.97305 2.46948 6.87296 2.41935 6.79898C2.13775 6.35075 1.98589 5.8793 1.98589 5.38175C1.98589 4.8842 2.13922 4.38666 2.41935 3.93843C2.47096 3.88911 2.47097 3.78902 2.3943 3.7397H2.39282Z" fill="#003081"/>
<path d="M3.18477 6.4262C3.20984 6.4262 3.23638 6.4262 3.26144 6.40154C3.33811 6.35222 3.36319 6.25212 3.31306 6.17814C3.15973 5.93009 3.08305 5.65593 3.08305 5.38177C3.08305 5.10761 3.15973 4.83489 3.31306 4.56073C3.36467 4.48675 3.33811 4.38668 3.26144 4.33736C3.18478 4.28804 3.08304 4.31269 3.03143 4.38667C2.85303 4.68549 2.77637 5.00898 2.77637 5.35712C2.77637 5.6806 2.8781 6.00407 3.03143 6.30289C3.08304 6.40298 3.13317 6.42764 3.18477 6.42764V6.4262Z" fill="#003081"/>
</svg>
