<svg width="610" height="37" viewBox="0 0 610 37" fill="none" xmlns="http://www.w3.org/2000/svg">
<path d="M0.214844 34.207C0.671875 33.9609 1.34863 33.7852 2.24512 33.6797C3.1416 33.5566 3.9502 33.3633 4.6709 33.0996C4.75879 32.748 4.81152 32.4932 4.8291 32.335C4.86426 32.0889 4.88184 31.2451 4.88184 29.8037L4.85547 23.9238L4.96094 20.7598L4.9082 18.3076L4.96094 16.8838C5.01367 14.9678 5.04004 13.1748 5.04004 11.5049C5.04004 7.84863 4.99609 5.51074 4.9082 4.49121L3.35254 4.1748C1.92871 4.08691 0.979492 3.99902 0.504883 3.91113L0.452148 2.3291L0.557617 2.03906C1.43652 1.89844 2.24512 1.82812 2.9834 1.82812C3.3877 1.82812 4.20508 1.81934 5.43555 1.80176C6.70117 1.90723 7.38672 1.95996 7.49219 1.95996L8.88965 1.88086L12.1855 1.72266C14.2422 1.51172 16.4131 1.40625 18.6982 1.40625C22.3018 1.40625 25.167 2.3291 27.2939 4.1748C29.4209 6.00293 30.4844 8.10352 30.4844 10.4766C30.4844 12.252 29.9043 13.8691 28.7441 15.3281C27.6016 16.7695 25.835 17.8594 23.4443 18.5977C23.6553 18.9668 23.9365 19.3975 24.2881 19.8896C25.0264 20.9443 25.624 21.8408 26.0811 22.5791L30.2998 29.4082C31.3545 31.2188 32.04 32.2822 32.3564 32.5986C32.6904 32.8975 33.3672 33.2314 34.3867 33.6006C35.1777 33.8994 35.7842 34.1982 36.2061 34.4971C36.3115 34.7959 36.3643 35.0596 36.3643 35.2881C36.3643 35.4463 36.3555 35.6484 36.3379 35.8945H35.626L35.0986 35.9209L33.7275 35.7363H32.6465C32.084 35.6484 31.3896 35.6045 30.5635 35.6045L27.9268 35.5781C27.7334 35.5781 27.1182 35.6396 26.0811 35.7627C25.6064 35.8154 25.2285 35.8594 24.9473 35.8945L24.0508 34.1543C23.3125 32.8359 22.7939 31.8516 22.4951 31.2012C21.7217 29.4961 20.3945 26.7803 18.5137 23.0537C17.6348 21.3311 17.0195 20.3555 16.668 20.127C16.1406 19.7578 15.2354 19.5732 13.9521 19.5732C13.6006 19.5732 13.0029 19.5908 12.1592 19.626C12.1064 20.1357 12.0801 20.7422 12.0801 21.4453L12.1855 27.2988L12.0537 32.2559C12.5459 32.5547 13.1875 32.7832 13.9785 32.9414C15.3496 33.2227 16.5273 33.5566 17.5117 33.9434C17.5117 34.8047 17.4766 35.4551 17.4062 35.8945C17.0723 35.877 16.8613 35.8682 16.7734 35.8682L15.6924 35.9209C11.9131 35.5869 9.67188 35.4199 8.96875 35.4199C8.51172 35.4199 8.18652 35.4287 7.99316 35.4463L4.35449 35.6836C3.24707 35.8066 2.23633 35.8682 1.32227 35.8682H0.188477C0.15332 35.4287 0.135742 35.1475 0.135742 35.0244C0.135742 34.8311 0.162109 34.5586 0.214844 34.207ZM12.0801 17.1475C12.9238 17.1826 13.5391 17.2002 13.9258 17.2002C16.9141 17.2002 19.0322 16.6641 20.2803 15.5918C21.5283 14.5195 22.1523 13.0869 22.1523 11.2939C22.1523 10.1865 21.9941 9.14941 21.6777 8.18262C21.3789 7.19824 21.001 6.46875 20.5439 5.99414C19.8936 5.30859 19.041 4.79004 17.9863 4.43848C17.2129 4.1748 15.9736 4.04297 14.2686 4.04297C13.46 4.04297 12.7656 4.08691 12.1855 4.1748L12.1592 4.67578L12.1855 8.23535L12.1328 10.3975L12.1592 13.2715C12.124 14.0801 12.0977 15.126 12.0801 16.4092V17.1475ZM41.0734 18.334C41.0734 16.1543 41.4953 13.9658 42.3391 11.7686C42.9543 10.1865 43.8156 8.73633 44.923 7.41797C46.0305 6.09961 47.4191 4.93066 49.0891 3.91113C50.759 2.87402 52.4641 2.13574 54.2043 1.69629C55.9445 1.23926 57.8869 1.01074 60.0314 1.01074C63.6877 1.01074 66.8605 1.69629 69.55 3.06738C72.2395 4.43848 74.3576 6.29297 75.9045 8.63086C77.9084 11.6719 78.9104 14.8623 78.9104 18.2021C78.9104 23.1768 77.2141 27.4395 73.8215 30.9902C70.4465 34.541 65.7443 36.3164 59.715 36.3164C58.2209 36.3164 56.8234 36.2197 55.5227 36.0264C54.5383 35.8857 53.677 35.6924 52.9387 35.4463C51.6027 35.0068 50.8557 34.752 50.6975 34.6816C48.7814 33.5918 47.2434 32.4756 46.0832 31.333C44.923 30.1904 43.9387 28.8984 43.1301 27.457C42.6906 26.6484 42.1896 25.1895 41.6271 23.0801C41.258 21.7266 41.0734 20.1445 41.0734 18.334ZM59.0295 3.62109C57.5002 3.62109 56.1467 3.98145 54.9689 4.70215C53.7912 5.40527 52.9035 6.1875 52.3059 7.04883C51.3039 8.50781 50.592 10.1074 50.1701 11.8477C49.7482 13.5703 49.5373 15.6709 49.5373 18.1494C49.5373 19.6611 49.5988 20.7422 49.7219 21.3926C49.757 21.6035 49.8098 21.9639 49.8801 22.4736C50.0383 23.7744 50.2229 24.7236 50.4338 25.3213C51.1896 27.5537 51.7258 28.9336 52.0422 29.4609C52.5695 30.3574 53.3518 31.2451 54.3889 32.124C54.9162 32.5811 55.6809 33.0029 56.6828 33.3896C57.6848 33.7588 58.6867 33.9434 59.6887 33.9434C61.5871 33.9434 63.3449 33.5039 64.9621 32.625C66.5969 31.7285 67.9064 30.2168 68.8908 28.0898C69.8752 25.9629 70.3674 23.1943 70.3674 19.7842C70.3674 18.3779 70.2707 16.4707 70.0773 14.0625L69.9455 13.5615C69.8928 13.4209 69.8049 13.0605 69.6818 12.4805C69.0314 9.59766 67.7834 7.40039 65.9377 5.88867C64.1096 4.37695 61.8068 3.62109 59.0295 3.62109ZM117.923 2.25C118.152 2.77734 118.618 4.28027 119.321 6.75879C119.637 7.88379 119.804 9.0791 119.822 10.3447H117.422C115.735 7.9541 113.995 6.24023 112.202 5.20312C110.409 4.14844 108.405 3.62109 106.19 3.62109C103.465 3.62109 101.268 4.68457 99.598 6.81152C97.3305 9.69434 96.1967 13.7109 96.1967 18.8613C96.1967 21.8496 96.39 23.9766 96.7768 25.2422C97.4096 27.2988 98.2094 28.9775 99.1762 30.2783C99.9145 31.2627 100.881 32.0449 102.077 32.625C103.623 33.416 105.276 33.8115 107.034 33.8115C108.967 33.8115 110.83 33.2139 112.623 32.0186C114.434 30.8057 116.165 29.0039 117.818 26.6133C118.468 26.4902 119.321 26.4199 120.375 26.4023C120.305 27.0703 120.191 27.7646 120.033 28.4854C119.98 28.7666 119.778 29.8828 119.426 31.834L119.189 32.625L118.82 33.8643C117.747 34.6904 116.236 35.3145 114.285 35.7363C112.351 36.1406 109.969 36.3428 107.139 36.3428C104.977 36.3428 102.929 36.1406 100.996 35.7363C99.0795 35.332 97.4359 34.6904 96.0648 33.8115C94.0609 32.5459 92.4877 31.1748 91.3451 29.6982C90.2025 28.2217 89.35 26.6133 88.7875 24.873C88.2426 23.1328 87.9701 21.1816 87.9701 19.0195C87.9701 13.7812 89.6928 9.45703 93.1381 6.04688C96.601 2.63672 101.013 0.931641 106.374 0.931641C108.554 0.931641 110.602 1.0459 112.518 1.27441C114.452 1.48535 116.253 1.81055 117.923 2.25ZM127.589 34.207C129.382 33.293 130.956 32.6426 132.309 32.2559C132.661 32.0449 132.889 31.7637 132.995 31.4121C133.1 31.043 133.153 29.6631 133.153 27.2725C133.153 26.9385 133.127 26.3057 133.074 25.374V24.7412L133.1 19.1514L133.074 15.1963L133.127 14.0361V12.9814C133.127 12.7178 133.153 12.3223 133.206 11.7949L133.074 10.6348L133.1 10.3447C133.135 10.0459 133.153 9.69434 133.153 9.29004C133.153 7.42676 133.021 6.04688 132.757 5.15039C132.107 4.67578 131.052 4.25391 129.593 3.88477C128.767 3.67383 128.134 3.43652 127.695 3.17285L127.879 1.53809C128.178 1.50293 128.486 1.48535 128.802 1.48535C130.226 1.48535 131.553 1.56445 132.784 1.72266C134.014 1.88086 135.719 1.95996 137.899 1.95996L140.588 1.82812C141.907 1.81055 142.926 1.75781 143.647 1.66992C144.174 1.61719 144.544 1.59082 144.754 1.59082C144.983 1.59082 145.238 1.59961 145.519 1.61719C145.572 1.79297 145.598 1.98633 145.598 2.19727C145.598 2.72461 145.572 3.11133 145.519 3.35742C144.412 3.76172 143.348 4.05176 142.329 4.22754C141.309 4.40332 140.729 4.56152 140.588 4.70215C140.36 4.91309 140.246 5.22949 140.246 5.65137V7.70801C140.246 7.98926 140.263 8.46387 140.298 9.13184C140.334 10.1689 140.351 10.8896 140.351 11.2939C140.351 11.5576 140.334 12.1465 140.298 13.0605V15.0645L140.246 16.9629C140.246 17.0508 140.254 17.1738 140.272 17.332C141.538 16.2422 143.225 14.5986 145.335 12.4014C146.319 11.3643 147.101 10.5732 147.681 10.0283C147.91 9.7998 149.149 8.49902 151.399 6.12598C152.12 5.1416 152.506 4.57031 152.559 4.41211L152.348 4.22754C151.258 4.03418 150.441 3.91992 149.896 3.88477C149.527 3.86719 148.929 3.74414 148.103 3.51562C148.068 3.23437 148.05 2.71582 148.05 1.95996L148.077 1.61719H149.237C149.799 1.61719 150.538 1.66113 151.452 1.74902C152.383 1.81934 153.095 1.85449 153.587 1.85449L159.942 1.74902C160.944 1.64355 162.051 1.54687 163.264 1.45898L163.238 3.54199C162.939 3.6123 162.359 3.73535 161.498 3.91113C159.388 4.5791 157.964 5.09766 157.226 5.4668C156.488 5.83594 155.75 6.31934 155.011 6.91699C154.273 7.49707 152.911 8.70996 150.924 10.5557C148.235 13.0518 146.627 14.5898 146.099 15.1699C146.433 15.5566 146.837 16.0049 147.312 16.5146L148.182 17.4111C148.34 17.5869 148.534 17.8066 148.762 18.0703L154.352 24.5303L158.993 30.3047C159.52 30.9727 159.88 31.4209 160.074 31.6494L160.496 32.124C160.795 32.5107 161.005 32.7393 161.129 32.8096C161.287 32.915 161.647 33.0469 162.21 33.2051C162.508 33.2754 163.255 33.583 164.451 34.1279C164.486 34.4443 164.504 34.6904 164.504 34.8662C164.504 35.0771 164.468 35.4023 164.398 35.8418L161.498 35.7891C161.164 35.7363 160.628 35.6924 159.889 35.6572L157.305 35.5254L156.752 35.5518L153.113 35.5254C152.761 35.5254 151.786 35.5869 150.186 35.71C149.342 35.7803 148.78 35.8154 148.499 35.8154C148.358 35.8154 148.147 35.8066 147.866 35.7891C147.778 35.5078 147.734 35.2793 147.734 35.1035C147.734 34.8926 147.769 34.5762 147.839 34.1543C148.613 33.8906 149.395 33.6709 150.186 33.4951C150.784 33.3896 151.179 33.2402 151.373 33.0469C151.566 32.8535 151.663 32.6426 151.663 32.4141C151.663 32.2559 151.636 32.124 151.584 32.0186C151.425 31.6143 151.153 31.166 150.766 30.6738C150.626 30.5156 149.378 29.0918 147.022 26.4023L140.325 18.8877C140.254 19.5205 140.219 20.2324 140.219 21.0234C140.219 22.1309 140.254 23.0713 140.325 23.8447C140.342 24.0029 140.369 25.1543 140.404 27.2988L140.351 29.6982L140.457 32.3086C140.949 32.748 141.828 33.1348 143.093 33.4688C143.832 33.6621 144.5 33.9434 145.097 34.3125C145.15 34.6641 145.176 34.9277 145.176 35.1035C145.176 35.2441 145.159 35.4639 145.124 35.7627C144.297 35.7979 143.656 35.8154 143.199 35.8154C142.707 35.8154 142.294 35.8066 141.96 35.7891L138.215 35.6045C137.706 35.5693 137.205 35.5518 136.712 35.5518C136.203 35.5518 135.561 35.5781 134.788 35.6309L130.121 35.6045C129.927 35.6045 129.092 35.6309 127.616 35.6836L127.589 34.207ZM166.892 3.62109L166.761 1.98633C166.971 1.86328 167.138 1.80176 167.262 1.80176C168.721 1.90723 170.179 1.98633 171.638 2.03906C172.236 2.05664 172.623 2.06543 172.799 2.06543C173.431 2.06543 174.17 2.03906 175.013 1.98633L178.441 1.82812C178.564 1.89844 178.643 1.99512 178.679 2.11816L178.468 3.33105C178.134 3.54199 177.808 3.72656 177.492 3.88477C176.789 4.27148 176.437 4.58789 176.437 4.83398C176.437 5.0625 176.525 5.35254 176.701 5.7041C176.806 5.91504 176.947 6.27539 177.123 6.78516C177.422 7.64648 178.265 9.73828 179.654 13.0605L186.483 28.9863C187.38 27.3164 188.777 24.5039 190.676 20.5488L186.8 11.2676C186.079 9.52734 185.455 8.09473 184.928 6.96973C184.752 6.60059 184.602 6.24902 184.479 5.91504C184.374 5.73926 184.233 5.48438 184.057 5.15039C183.882 4.79883 183.609 4.51758 183.24 4.30664C182.871 4.07812 181.992 3.79688 180.603 3.46289L180.709 1.88086C181.271 1.88086 182.045 1.90723 183.029 1.95996C184.453 2.06543 185.367 2.11816 185.771 2.11816L189.463 2.06543L194.024 1.80176C194.112 1.81934 194.235 1.82812 194.393 1.82812L194.42 2.72461V3.04102C194.42 3.14648 194.385 3.28711 194.314 3.46289C194.015 3.55078 193.541 3.62988 192.89 3.7002C192.433 3.73535 192.108 3.83203 191.915 3.99023C191.739 4.14844 191.651 4.33301 191.651 4.54395C191.651 5.07129 191.836 5.71289 192.205 6.46875C192.363 6.80273 192.574 7.3125 192.838 7.99805C193.717 10.248 194.393 11.8916 194.868 12.9287L196.714 9.10547C197.557 7.34766 198.111 6.05566 198.375 5.22949C198.428 5.05371 198.454 4.9043 198.454 4.78125V4.62305C198.243 4.39453 198.05 4.23633 197.874 4.14844C197.434 3.95508 196.687 3.72656 195.633 3.46289C195.597 3.12891 195.58 2.87402 195.58 2.69824C195.58 2.50488 195.606 2.21484 195.659 1.82812C196.239 1.82812 197.883 1.87207 200.59 1.95996C202.189 2.0127 203.209 2.03906 203.648 2.03906C204.017 2.03906 204.343 2.03906 204.624 2.03906C204.905 2.02148 205.204 2.0127 205.52 2.0127L205.573 2.22363L205.494 3.41016L205.441 3.54199C203.543 4.08691 202.409 4.48242 202.04 4.72852C201.671 4.97461 201.319 5.37891 200.985 5.94141C200.106 7.48828 198.48 10.7227 196.107 15.6445L196.213 15.8818L197.9 19.7842L200.774 26.5605C201.073 27.2285 201.284 27.7207 201.407 28.0371L204.729 19.3359L209.37 7.49707L210.108 5.28223C210.143 5.1416 210.161 5.00098 210.161 4.86035L210.082 4.41211C209.484 4.21875 208.992 4.07812 208.605 3.99023C208.236 3.88477 207.911 3.74414 207.63 3.56836C207.577 2.98828 207.551 2.62793 207.551 2.4873C207.551 2.34668 207.612 2.16211 207.735 1.93359L208.157 1.88086L212.112 2.03906L214.722 1.88086L215.276 1.95996C215.329 2.27637 215.355 2.55762 215.355 2.80371C215.355 3.12012 215.294 3.375 215.171 3.56836C215.083 3.69141 214.907 3.79688 214.643 3.88477C213.923 4.23633 213.43 4.57031 213.167 4.88672C212.973 5.09766 212.701 5.68652 212.349 6.65332C210.82 10.7666 209.238 14.7305 207.603 18.5449C205.986 22.3594 203.569 28.4326 200.352 36.7646L197.689 36.791C197.513 36.1582 197.32 35.6221 197.109 35.1826C196.599 34.04 196.301 33.3193 196.213 33.0205L193.286 26.2705C192.811 25.1455 192.425 24.3105 192.126 23.7656C192.073 23.6777 192.003 23.5547 191.915 23.3965C191.88 23.4844 190.948 25.251 189.12 28.6963C187.309 32.124 185.982 34.8047 185.138 36.7383L182.449 36.7646C181.816 34.8311 180.577 31.8604 178.731 27.8525L170.215 7.91895C169.318 5.89746 168.677 4.69336 168.29 4.30664C168.149 4.16602 167.886 4.0166 167.499 3.8584C167.358 3.80566 167.156 3.72656 166.892 3.62109ZM220.354 1.69629C221.356 1.74902 222.227 1.82812 222.965 1.93359C224.354 2.12695 225.962 2.22363 227.79 2.22363C228.423 2.22363 230.049 2.1709 232.668 2.06543C236.588 1.90723 240.13 1.82812 243.294 1.82812L248.066 1.77539C249.139 1.77539 250.721 1.90723 252.812 2.1709C253.129 2.52246 253.287 2.99707 253.287 3.59473V9.02637L253.34 10.1074C253.34 10.2129 253.331 10.3711 253.313 10.582L252.232 10.6348C252.092 10.6348 251.793 10.6172 251.336 10.582C251.178 10.2305 250.967 9.71191 250.703 9.02637L249.648 7.1543C249.244 6.36328 248.682 5.55469 247.961 4.72852C247.521 4.60547 246.959 4.53516 246.273 4.51758C246.098 4.5 245.562 4.45605 244.665 4.38574C243.03 4.24512 241.272 4.1748 239.392 4.1748C237.247 4.1748 235.331 4.20996 233.644 4.28027C233.591 4.71973 233.564 6.45117 233.564 9.47461L233.617 13.9043V17.2266C234.057 17.2793 234.435 17.3057 234.751 17.3057C237.897 17.3057 240.139 17.2441 241.475 17.1211C242.811 16.998 243.637 16.8311 243.953 16.6201C244.27 16.3916 244.551 16.0049 244.797 15.46C244.955 15.0732 245.263 13.7812 245.72 11.584L246.062 11.5576L247.592 11.584C247.662 13.1484 247.697 14.335 247.697 15.1436C247.697 16.9893 247.68 18.1758 247.645 18.7031C247.627 19.2305 247.618 19.6436 247.618 19.9424C247.618 20.417 247.645 21.1816 247.697 22.2363C247.75 23.2734 247.776 24.0469 247.776 24.5566V25.1367H245.904C245.834 24.8555 245.702 24.2754 245.509 23.3965C245.157 21.7617 244.841 20.7422 244.56 20.3379C244.349 20.0215 243.997 19.7842 243.505 19.626C243.153 19.5029 241.853 19.4414 239.603 19.4414C236.948 19.4414 234.953 19.5117 233.617 19.6523C233.6 20.1094 233.591 20.4082 233.591 20.5488C233.591 22.6406 233.626 24.3809 233.696 25.7695L233.644 31.4648C233.644 32.1328 233.881 32.5898 234.355 32.8359C235.076 33.2051 237.282 33.3896 240.974 33.3896C243.417 33.3896 245.491 33.2051 247.196 32.8359C248.374 32.5723 249.411 31.9834 250.308 31.0693C251.503 29.8916 252.496 28.2393 253.287 26.1123C253.832 26.0596 254.28 26.0332 254.632 26.0332C254.825 26.0332 255.115 26.042 255.502 26.0596C255.449 26.499 255.405 26.8682 255.37 27.167L255.212 27.958L254.236 32.9414L253.762 35.9473C252.619 36 251.714 36.0264 251.046 36.0264C250.062 36.0264 247.434 35.9385 243.162 35.7627C240.156 35.6396 236.535 35.5781 232.299 35.5781C230.189 35.5781 227.597 35.666 224.521 35.8418H223.413L220.223 35.9473V34.1279C220.557 34.04 221.225 33.9434 222.227 33.8379C224.055 33.627 225.32 33.3457 226.023 32.9941C226.217 32.4844 226.313 31.8428 226.313 31.0693C226.313 30.7705 226.305 30.2607 226.287 29.54L226.313 28.7227L226.234 18.7822L226.261 15.8027L226.129 11.584L226.155 8.60449L225.918 5.33496C225.918 5.24707 225.9 5.07129 225.865 4.80762C225.689 4.61426 225.426 4.49121 225.074 4.43848C224.881 4.40332 224.617 4.35059 224.283 4.28027C223.281 4.06934 222.314 3.94629 221.383 3.91113C221.049 3.89355 220.662 3.8584 220.223 3.80566L220.354 1.69629ZM262.821 33.6533C263.366 33.4951 264.131 33.3457 265.115 33.2051C266.117 33.0469 266.706 32.9678 266.882 32.9678C267.568 32.9502 268.025 32.8359 268.253 32.625C268.359 32.2031 268.411 31.8516 268.411 31.5703L268.359 28.1953L268.517 24.7676V22.5791L268.543 19.9951L268.49 17.2529L268.596 11.373L268.622 8.70996V8.34082C268.499 6.49512 268.376 5.48438 268.253 5.30859C268.148 5.11523 267.647 4.87793 266.75 4.59668C266.662 4.56152 266.328 4.42969 265.748 4.20117C265.309 4.02539 264.913 3.90234 264.562 3.83203C263.946 3.67383 263.516 3.48926 263.27 3.27832C263.235 2.82129 263.217 2.46973 263.217 2.22363C263.217 2.08301 263.226 1.87207 263.243 1.59082C263.402 1.50293 263.569 1.45898 263.744 1.45898C264.166 1.45898 265.695 1.5293 268.332 1.66992L272.103 1.64355L274.898 1.69629C276.111 1.69629 277.666 1.61719 279.565 1.45898C280.127 1.40625 280.452 1.37988 280.54 1.37988C280.804 1.37988 280.988 1.4502 281.094 1.59082C281.235 1.78418 281.305 2.13574 281.305 2.64551C281.305 3.0498 281.208 3.35742 281.015 3.56836C280.909 3.69141 280.523 3.79688 279.855 3.88477L276.585 4.64941C276.497 4.68457 276.348 4.75488 276.137 4.86035C276.067 4.9834 276.014 5.08887 275.979 5.17676L275.952 5.91504L275.873 7.57617V8.05078L275.9 8.34082C275.9 8.42871 275.873 8.91211 275.82 9.79102C275.803 10.0195 275.794 10.248 275.794 10.4766C275.794 10.7578 275.812 11.2324 275.847 11.9004C275.9 12.9551 275.926 13.8779 275.926 14.6689C275.926 15.583 275.9 16.6289 275.847 17.8066C275.829 18.2461 275.82 18.8174 275.82 19.5205L275.715 32.0186C275.715 32.5459 275.803 32.8887 275.979 33.0469L278.484 33.1523L280.039 33.126L281.7 33.1787C284.53 33.1787 286.754 32.8535 288.371 32.2031C289.584 31.7109 290.375 31.2188 290.744 30.7266C291.342 30.1992 291.825 29.6279 292.195 29.0127C292.581 28.3975 293.012 27.3779 293.487 25.9541H294.33C294.752 25.9541 295.227 25.9893 295.754 26.0596V26.7979C295.754 28.0635 295.596 30.2783 295.279 33.4424C295.156 34.708 295.033 35.4814 294.91 35.7627C294.506 35.833 294.251 35.8682 294.146 35.8682H293.17L291.799 35.8945C291.641 35.8945 290.595 35.8242 288.661 35.6836C288.31 35.666 286.631 35.6045 283.625 35.499C280.619 35.3936 277.675 35.3408 274.792 35.3408L269.413 35.499C267.339 35.5518 265.397 35.6484 263.586 35.7891H263.191C263.085 35.7891 262.918 35.7803 262.69 35.7627C262.654 35.5693 262.637 35.4023 262.637 35.2617C262.637 34.5234 262.698 33.9873 262.821 33.6533ZM301.202 33.6533C301.746 33.4951 302.511 33.3457 303.496 33.2051C304.497 33.0469 305.086 32.9678 305.262 32.9678C305.948 32.9502 306.405 32.8359 306.633 32.625C306.739 32.2031 306.791 31.8516 306.791 31.5703L306.739 28.1953L306.897 24.7676V22.5791L306.923 19.9951L306.871 17.2529L306.976 11.373L307.002 8.70996V8.34082C306.879 6.49512 306.756 5.48438 306.633 5.30859C306.528 5.11523 306.027 4.87793 305.13 4.59668C305.042 4.56152 304.708 4.42969 304.128 4.20117C303.689 4.02539 303.293 3.90234 302.942 3.83203C302.327 3.67383 301.896 3.48926 301.65 3.27832C301.615 2.82129 301.597 2.46973 301.597 2.22363C301.597 2.08301 301.606 1.87207 301.623 1.59082C301.782 1.50293 301.949 1.45898 302.124 1.45898C302.546 1.45898 304.076 1.5293 306.712 1.66992L310.483 1.64355L313.278 1.69629C314.491 1.69629 316.046 1.61719 317.945 1.45898C318.507 1.40625 318.832 1.37988 318.92 1.37988C319.184 1.37988 319.369 1.4502 319.474 1.59082C319.615 1.78418 319.685 2.13574 319.685 2.64551C319.685 3.0498 319.588 3.35742 319.395 3.56836C319.289 3.69141 318.903 3.79688 318.235 3.88477L314.965 4.64941C314.877 4.68457 314.728 4.75488 314.517 4.86035C314.447 4.9834 314.394 5.08887 314.359 5.17676L314.332 5.91504L314.253 7.57617V8.05078L314.28 8.34082C314.28 8.42871 314.253 8.91211 314.201 9.79102C314.183 10.0195 314.174 10.248 314.174 10.4766C314.174 10.7578 314.192 11.2324 314.227 11.9004C314.28 12.9551 314.306 13.8779 314.306 14.6689C314.306 15.583 314.28 16.6289 314.227 17.8066C314.209 18.2461 314.201 18.8174 314.201 19.5205L314.095 32.0186C314.095 32.5459 314.183 32.8887 314.359 33.0469L316.864 33.1523L318.419 33.126L320.08 33.1787C322.911 33.1787 325.134 32.8535 326.751 32.2031C327.964 31.7109 328.755 31.2188 329.124 30.7266C329.722 30.1992 330.205 29.6279 330.575 29.0127C330.961 28.3975 331.392 27.3779 331.867 25.9541H332.71C333.132 25.9541 333.607 25.9893 334.134 26.0596V26.7979C334.134 28.0635 333.976 30.2783 333.66 33.4424C333.537 34.708 333.413 35.4814 333.29 35.7627C332.886 35.833 332.631 35.8682 332.526 35.8682H331.55L330.179 35.8945C330.021 35.8945 328.975 35.8242 327.041 35.6836C326.69 35.666 325.011 35.6045 322.005 35.499C318.999 35.3936 316.055 35.3408 313.172 35.3408L307.793 35.499C305.719 35.5518 303.777 35.6484 301.966 35.7891H301.571C301.465 35.7891 301.298 35.7803 301.07 35.7627C301.035 35.5693 301.017 35.4023 301.017 35.2617C301.017 34.5234 301.079 33.9873 301.202 33.6533ZM388.324 2.25C388.553 2.77734 389.018 4.28027 389.721 6.75879C390.038 7.88379 390.205 9.0791 390.222 10.3447H387.823C386.136 7.9541 384.395 6.24023 382.602 5.20312C380.809 4.14844 378.805 3.62109 376.591 3.62109C373.866 3.62109 371.669 4.68457 369.999 6.81152C367.731 9.69434 366.597 13.7109 366.597 18.8613C366.597 21.8496 366.791 23.9766 367.178 25.2422C367.81 27.2988 368.61 28.9775 369.577 30.2783C370.315 31.2627 371.282 32.0449 372.477 32.625C374.024 33.416 375.677 33.8115 377.434 33.8115C379.368 33.8115 381.231 33.2139 383.024 32.0186C384.835 30.8057 386.566 29.0039 388.219 26.6133C388.869 26.4902 389.721 26.4199 390.776 26.4023C390.706 27.0703 390.592 27.7646 390.433 28.4854C390.381 28.7666 390.179 29.8828 389.827 31.834L389.59 32.625L389.221 33.8643C388.148 34.6904 386.637 35.3145 384.685 35.7363C382.752 36.1406 380.37 36.3428 377.54 36.3428C375.378 36.3428 373.33 36.1406 371.396 35.7363C369.48 35.332 367.837 34.6904 366.466 33.8115C364.462 32.5459 362.888 31.1748 361.746 29.6982C360.603 28.2217 359.751 26.6133 359.188 24.873C358.643 23.1328 358.371 21.1816 358.371 19.0195C358.371 13.7812 360.094 9.45703 363.539 6.04688C367.002 2.63672 371.414 0.931641 376.775 0.931641C378.955 0.931641 381.003 1.0459 382.919 1.27441C384.852 1.48535 386.654 1.81055 388.324 2.25ZM395.881 35.8154L395.934 34.0225C396.268 33.917 396.856 33.7852 397.7 33.627C399.054 33.3633 399.871 33.126 400.152 32.915C400.451 32.7041 400.812 32.1943 401.233 31.3857L406.56 17.4375L412.809 1.03711C413.389 1.05469 413.942 1.06348 414.47 1.06348H415.656L415.894 1.53809L420.481 12.4014C421.519 14.7041 422.45 16.9453 423.276 19.125C424.103 21.2871 424.814 23.0537 425.412 24.4248C425.764 25.251 426.247 26.4902 426.862 28.1426C427.179 29.0391 427.662 30.1641 428.312 31.5176C428.664 32.2559 428.928 32.6865 429.104 32.8096C429.42 33.0732 429.93 33.249 430.633 33.3369C431.354 33.4248 432.127 33.627 432.953 33.9434C433.041 34.5234 433.085 34.9541 433.085 35.2354C433.085 35.3584 433.076 35.5518 433.059 35.8154C431.758 35.8154 430.325 35.7539 428.761 35.6309C427.196 35.5078 425.79 35.4463 424.542 35.4463C423.153 35.4463 422.151 35.4639 421.536 35.499L417.054 35.7363L415.762 35.7891C415.762 35.1738 415.788 34.585 415.841 34.0225L418.768 33.3896C419.646 33.1611 420.156 32.9854 420.297 32.8623C420.473 32.6865 420.561 32.4844 420.561 32.2559C420.561 32.0273 420.517 31.79 420.429 31.5439L419.374 28.96L417.291 23.792L407.219 23.7656C406.85 24.6094 406.085 26.6748 404.925 29.9619C404.591 30.8936 404.424 31.5264 404.424 31.8604C404.424 32.3174 404.547 32.6426 404.793 32.8359C405.197 33.1699 405.971 33.4072 407.113 33.5479C407.271 33.583 407.896 33.6797 408.985 33.8379C409.003 34.4707 409.012 34.9102 409.012 35.1562C409.012 35.3496 408.994 35.5518 408.959 35.7627C407.869 35.7627 405.268 35.6133 401.154 35.3145L400.073 35.499C398.772 35.71 397.533 35.8154 396.355 35.8154H395.881ZM408.273 20.9971C412.387 21.0498 414.812 21.0762 415.551 21.0762L416.21 21.0498C415.683 19.4854 414.997 17.666 414.153 15.5918C413.31 13.5 412.624 11.9092 412.097 10.8193L408.273 20.9971ZM437.346 3.46289L437.32 1.45898L443.621 1.85449L446.443 1.82812H447.471C448.543 1.82812 450.222 1.7666 452.507 1.64355C453.808 1.55566 454.625 1.51172 454.959 1.51172C457.174 1.51172 458.844 1.63477 459.969 1.88086C461.692 2.23242 463.054 2.79492 464.056 3.56836C465.075 4.3418 465.945 5.44922 466.666 6.89062C467.404 8.31445 467.774 9.6416 467.774 10.8721C467.774 13.9307 466.807 16.418 464.873 18.334C462.957 20.2324 460.531 21.1816 457.596 21.1816C456.576 21.1816 455.601 21.0586 454.669 20.8125C453.755 20.5664 452.894 20.1973 452.085 19.7051C451.997 19.1953 451.953 18.4922 451.953 17.5957C452.375 17.6309 452.753 17.6572 453.087 17.6748C453.439 17.6924 453.746 17.7012 454.01 17.7012C455.504 17.7012 456.761 17.2881 457.78 16.4619C459.134 15.3896 459.811 13.6494 459.811 11.2412C459.811 9.51855 459.512 8.1123 458.914 7.02246C458.334 5.91504 457.64 5.16797 456.831 4.78125C455.706 4.25391 454.441 3.99023 453.034 3.99023C451.716 3.99023 450.776 4.18359 450.213 4.57031C450.072 4.79883 449.967 5.01855 449.897 5.22949L450.081 17.6484L450.029 18.7031L450.108 19.8105C450.125 20.0566 450.134 20.417 450.134 20.8916V23.0537L450.16 26.5078L450.108 30.6211C450.108 31.2012 450.16 31.9834 450.266 32.9678L455.513 33.627C455.583 34.0488 455.618 34.3828 455.618 34.6289C455.618 34.8926 455.574 35.2617 455.487 35.7363C455.047 35.8066 454.713 35.8418 454.485 35.8418C453.94 35.8418 452.911 35.7803 451.4 35.6572C449.888 35.5166 448.165 35.4463 446.232 35.4463C444.052 35.4463 441.978 35.5869 440.009 35.8682C439.675 35.9209 439.148 35.9648 438.427 36C438.357 35.4902 438.321 35.1123 438.321 34.8662C438.321 34.708 438.339 34.4619 438.374 34.1279L439.983 33.6006C441.09 33.2666 442.048 32.8623 442.857 32.3877C443.015 31.8779 443.094 31.4121 443.094 30.9902C443.094 30.8145 443.085 30.6123 443.068 30.3838C443.05 29.8389 443.041 29.0742 443.041 28.0898L442.962 20.6807L442.672 12.3223C442.549 8.34961 442.452 6.20508 442.382 5.88867C442.259 5.37891 442.048 4.9834 441.749 4.70215C441.45 4.40332 440.949 4.19238 440.246 4.06934C438.787 3.82324 437.82 3.62109 437.346 3.46289ZM475.489 35.8418V33.9434C475.84 33.8379 476.42 33.6885 477.229 33.4951C478.371 33.2139 479.224 32.9238 479.787 32.625C480.103 32.0801 480.261 31.3242 480.261 30.3574L480.235 27.2461L480.288 21.2344L480.261 19.8105C480.384 16.3301 480.446 14.5371 480.446 14.4316L480.393 10.9248L480.472 9.50098L480.34 6.49512L480.314 5.36133C480.296 5.18555 480.235 4.9043 480.129 4.51758C479.409 4.18359 478.24 3.97266 476.622 3.88477C476.236 3.86719 475.928 3.84082 475.7 3.80566L475.621 1.48535L483.162 1.80176C484.093 1.83691 484.673 1.85449 484.902 1.85449C485.939 1.85449 487.6 1.78418 489.885 1.64355C491.168 1.55566 491.977 1.50293 492.311 1.48535C492.329 1.81934 492.337 2.10059 492.337 2.3291C492.337 2.62793 492.32 3.01465 492.285 3.48926C491.581 3.73535 490.773 3.97266 489.859 4.20117C488.962 4.41211 488.224 4.63184 487.644 4.86035C487.538 5.31738 487.486 5.97656 487.486 6.83789C487.486 7.59375 487.512 8.20898 487.565 8.68359C487.512 11.6543 487.486 13.9395 487.486 15.5391L487.512 22.5L487.433 26.0332L487.486 31.3066L487.459 32.3086C487.459 32.4492 487.495 32.6514 487.565 32.915C488.637 33.1436 489.613 33.3018 490.492 33.3896C490.65 33.4072 491.186 33.4775 492.1 33.6006C492.17 34.1279 492.205 34.5674 492.205 34.9189C492.205 35.1123 492.197 35.4111 492.179 35.8154C491.951 35.8154 491.775 35.8242 491.652 35.8418C491.089 35.877 490.764 35.8945 490.676 35.8945C490.553 35.8945 490.325 35.8682 489.991 35.8154C489.745 35.7803 488.576 35.6572 486.484 35.4463L481.817 35.3936C480.885 35.3936 479.532 35.4814 477.756 35.6572C476.596 35.7627 475.84 35.8242 475.489 35.8418ZM501.608 0.219727H503.243C503.366 0.413086 503.454 0.553711 503.506 0.641602C503.999 1.48535 504.377 2.03906 504.64 2.30273C504.869 2.37305 506.073 2.4082 508.253 2.4082C509.606 2.4082 510.81 2.39941 511.865 2.38184L512.392 2.30273L515.583 2.27637L521.542 2.3291H529.689L531.245 2.0918C531.473 1.93359 531.719 1.51172 531.983 0.826172C532.053 0.667969 532.15 0.448242 532.273 0.166992L533.433 0.140625C533.609 0.140625 533.873 0.149414 534.224 0.166992C534.242 1.37988 534.251 3.20801 534.251 5.65137L534.277 7.99805L534.251 9.34277C534.251 9.7998 534.215 10.1953 534.145 10.5293C533.424 10.7578 532.792 10.8984 532.247 10.9512C531.79 10.2656 531.289 9.27246 530.744 7.97168C530.216 6.6709 529.882 5.9502 529.742 5.80957C529.531 5.58105 529.285 5.43164 529.004 5.36133C528.582 5.27344 526.718 5.22949 523.414 5.22949C522.921 5.22949 522.306 5.26465 521.568 5.33496C521.462 6.02051 521.41 6.58301 521.41 7.02246L521.436 10.5557V18.3076L521.542 26.666L521.515 30.0938C521.515 31.3066 521.621 32.2207 521.832 32.8359C522.113 32.959 522.631 33.0732 523.387 33.1787C523.528 33.1963 524.178 33.3369 525.338 33.6006C525.866 33.7236 526.332 33.8643 526.736 34.0225C526.824 34.6553 526.868 35.042 526.868 35.1826C526.868 35.3408 526.841 35.5693 526.789 35.8682C526.402 35.8857 526.086 35.8945 525.839 35.8945C524.029 35.8945 522.491 35.833 521.225 35.71C519.96 35.5693 517.666 35.499 514.343 35.499C513.816 35.499 512.269 35.6045 509.703 35.8154C508.701 35.8857 508.05 35.9209 507.752 35.9209C507.734 35.6572 507.716 35.4551 507.699 35.3145L507.672 34.708V34.4971C508.059 33.9873 508.789 33.6094 509.861 33.3633C511.689 32.9238 512.955 32.5283 513.658 32.1768C513.834 31.8428 513.939 31.4033 513.974 30.8584C514.097 28.749 514.159 25.3916 514.159 20.7861L514.027 10.8193C514.027 8.07715 513.974 6.41602 513.869 5.83594C513.834 5.67773 513.772 5.56348 513.684 5.49316C513.596 5.40527 513.473 5.35254 513.315 5.33496C512.77 5.26465 510.995 5.22949 507.989 5.22949C506.337 5.22949 505.229 5.3877 504.667 5.7041C503.911 6.14355 502.777 7.33887 501.265 9.29004C500.826 9.85254 500.501 10.1338 500.29 10.1338C499.481 9.71191 498.962 9.36914 498.734 9.10547C499.279 7.96289 500.035 5.67773 501.002 2.25C501.283 1.24805 501.485 0.571289 501.608 0.219727ZM535.268 35.8154L535.321 34.0225C535.655 33.917 536.244 33.7852 537.088 33.627C538.441 33.3633 539.259 33.126 539.54 32.915C539.839 32.7041 540.199 32.1943 540.621 31.3857L545.947 17.4375L552.196 1.03711C552.776 1.05469 553.33 1.06348 553.857 1.06348H555.044L555.281 1.53809L559.869 12.4014C560.906 14.7041 561.838 16.9453 562.664 19.125C563.49 21.2871 564.202 23.0537 564.8 24.4248C565.151 25.251 565.635 26.4902 566.25 28.1426C566.566 29.0391 567.05 30.1641 567.7 31.5176C568.052 32.2559 568.315 32.6865 568.491 32.8096C568.807 33.0732 569.317 33.249 570.02 33.3369C570.741 33.4248 571.514 33.627 572.341 33.9434C572.429 34.5234 572.472 34.9541 572.472 35.2354C572.472 35.3584 572.464 35.5518 572.446 35.8154C571.145 35.8154 569.713 35.7539 568.148 35.6309C566.584 35.5078 565.178 35.4463 563.93 35.4463C562.541 35.4463 561.539 35.4639 560.924 35.499L556.441 35.7363L555.149 35.7891C555.149 35.1738 555.176 34.585 555.228 34.0225L558.155 33.3896C559.034 33.1611 559.544 32.9854 559.684 32.8623C559.86 32.6865 559.948 32.4844 559.948 32.2559C559.948 32.0273 559.904 31.79 559.816 31.5439L558.762 28.96L556.679 23.792L546.606 23.7656C546.237 24.6094 545.472 26.6748 544.312 29.9619C543.978 30.8936 543.811 31.5264 543.811 31.8604C543.811 32.3174 543.934 32.6426 544.18 32.8359C544.585 33.1699 545.358 33.4072 546.501 33.5479C546.659 33.583 547.283 33.6797 548.373 33.8379C548.39 34.4707 548.399 34.9102 548.399 35.1562C548.399 35.3496 548.382 35.5518 548.346 35.7627C547.257 35.7627 544.655 35.6133 540.542 35.3145L539.461 35.499C538.16 35.71 536.921 35.8154 535.743 35.8154H535.268ZM547.661 20.9971C551.774 21.0498 554.2 21.0762 554.938 21.0762L555.597 21.0498C555.07 19.4854 554.385 17.666 553.541 15.5918C552.697 13.5 552.012 11.9092 551.484 10.8193L547.661 20.9971ZM576.654 33.6533C577.199 33.4951 577.964 33.3457 578.948 33.2051C579.95 33.0469 580.539 32.9678 580.715 32.9678C581.4 32.9502 581.857 32.8359 582.086 32.625C582.191 32.2031 582.244 31.8516 582.244 31.5703L582.191 28.1953L582.35 24.7676V22.5791L582.376 19.9951L582.323 17.2529L582.429 11.373L582.455 8.70996V8.34082C582.332 6.49512 582.209 5.48438 582.086 5.30859C581.98 5.11523 581.479 4.87793 580.583 4.59668C580.495 4.56152 580.161 4.42969 579.581 4.20117C579.142 4.02539 578.746 3.90234 578.395 3.83203C577.779 3.67383 577.349 3.48926 577.103 3.27832C577.067 2.82129 577.05 2.46973 577.05 2.22363C577.05 2.08301 577.059 1.87207 577.076 1.59082C577.234 1.50293 577.401 1.45898 577.577 1.45898C577.999 1.45898 579.528 1.5293 582.165 1.66992L585.936 1.64355L588.73 1.69629C589.943 1.69629 591.499 1.61719 593.397 1.45898C593.96 1.40625 594.285 1.37988 594.373 1.37988C594.637 1.37988 594.821 1.4502 594.927 1.59082C595.067 1.78418 595.138 2.13574 595.138 2.64551C595.138 3.0498 595.041 3.35742 594.848 3.56836C594.742 3.69141 594.355 3.79688 593.688 3.88477L590.418 4.64941C590.33 4.68457 590.181 4.75488 589.97 4.86035C589.899 4.9834 589.847 5.08887 589.812 5.17676L589.785 5.91504L589.706 7.57617V8.05078L589.732 8.34082C589.732 8.42871 589.706 8.91211 589.653 9.79102C589.636 10.0195 589.627 10.248 589.627 10.4766C589.627 10.7578 589.645 11.2324 589.68 11.9004C589.732 12.9551 589.759 13.8779 589.759 14.6689C589.759 15.583 589.732 16.6289 589.68 17.8066C589.662 18.2461 589.653 18.8174 589.653 19.5205L589.548 32.0186C589.548 32.5459 589.636 32.8887 589.812 33.0469L592.316 33.1523L593.872 33.126L595.533 33.1787C598.363 33.1787 600.587 32.8535 602.204 32.2031C603.417 31.7109 604.208 31.2188 604.577 30.7266C605.175 30.1992 605.658 29.6279 606.027 29.0127C606.414 28.3975 606.845 27.3779 607.319 25.9541H608.163C608.585 25.9541 609.06 25.9893 609.587 26.0596V26.7979C609.587 28.0635 609.429 30.2783 609.112 33.4424C608.989 34.708 608.866 35.4814 608.743 35.7627C608.339 35.833 608.084 35.8682 607.979 35.8682H607.003L605.632 35.8945C605.474 35.8945 604.428 35.8242 602.494 35.6836C602.143 35.666 600.464 35.6045 597.458 35.499C594.452 35.3936 591.508 35.3408 588.625 35.3408L583.246 35.499C581.172 35.5518 579.229 35.6484 577.419 35.7891H577.023C576.918 35.7891 576.751 35.7803 576.522 35.7627C576.487 35.5693 576.47 35.4023 576.47 35.2617C576.47 34.5234 576.531 33.9873 576.654 33.6533Z" fill="#fff"/>
</svg>
