<svg width="16" height="16" viewBox="0 0 16 16" fill="none" xmlns="http://www.w3.org/2000/svg">
<path d="M4.05194 3.98152C4.60683 3.98152 5.06926 3.53091 5.06926 2.99076C5.06926 2.45061 4.60683 2 4.05194 2C3.49706 2 3.03613 2.45061 3.03613 2.99076C3.03613 3.53091 3.47504 3.98152 4.05194 3.98152Z" fill="#003081"/>
<path d="M10.1508 5.66986C10.1038 5.64675 10.0348 5.66986 10.0128 5.71463L8.9045 7.06501H8.37308C8.30409 7.06501 8.23511 7.13289 8.23511 7.20077C8.23511 7.26865 8.30409 7.33509 8.37308 7.33509H13.2937C13.3626 7.33509 13.4331 7.26721 13.4331 7.20077V3.84721C13.4331 3.77933 13.3641 3.71289 13.2937 3.71289H7.79472C7.72573 3.71289 7.65527 3.78077 7.65527 3.84721C7.65527 3.91364 7.72426 3.98152 7.79472 3.98152H13.1322V7.08812H9.25095L10.1523 5.98471L11.215 6.25478C11.284 6.27789 11.331 6.25478 11.3765 6.1869L11.8624 5.46622L11.9314 5.9616C11.9314 6.02948 12.0004 6.07425 12.0709 6.07425H12.0943C12.1633 6.07425 12.2338 5.98471 12.2103 5.91683L12.0943 5.08349C12.0943 5.01561 12.0019 4.94917 11.9329 4.97084L11.0785 5.08349C11.0095 5.08349 10.9405 5.17304 10.9626 5.24092C10.9626 5.3088 11.0551 5.37523 11.1241 5.35357L11.632 5.28569L11.193 5.93849L10.1537 5.66842L10.1508 5.66986Z" fill="#003081"/>
<path d="M14.449 2.58638H6.3621C6.29311 2.58638 6.22266 2.65426 6.22266 2.7207V3.5757C6.22266 3.64358 6.29164 3.71146 6.3621 3.71146C6.43257 3.71146 6.50012 3.64358 6.50012 3.5757V2.87812H14.3096V8.23487H6.63957C6.57057 8.23487 6.50012 8.30275 6.50012 8.36919C6.50012 8.43562 6.56911 8.50495 6.63957 8.50495H14.449C14.518 8.50495 14.587 8.43707 14.587 8.36919V2.71925C14.587 2.65137 14.518 2.58494 14.449 2.58494V2.58638Z" fill="#003081"/>
<path d="M13.871 13.2782H5.34514V5.82875C5.34514 5.76087 5.41413 5.69443 5.48312 5.69443H7.51624C7.86268 5.69443 8.16359 5.44602 8.23259 5.13117H2.59568C2.20227 5.13117 1.8793 5.44602 1.8793 5.82875V9.20542C1.8793 9.54338 2.13328 9.83512 2.45623 9.903V6.39201C2.45623 6.32413 2.52522 6.25769 2.59568 6.25769C2.66614 6.25769 2.73366 6.32557 2.73366 6.39201V13.3013H1.13948C1.07049 13.3013 1 13.3692 1 13.4356C1 13.5021 1.06902 13.5714 1.13948 13.5714H13.846C13.915 13.5714 13.9855 13.5035 13.9855 13.4356C14.009 13.3461 13.9385 13.2782 13.8695 13.2782H13.871ZM4.19132 13.2782H3.89042V10.0373C3.89042 9.96943 3.9594 9.903 4.02987 9.903C4.10033 9.903 4.16784 9.97088 4.16784 10.0373V13.2782H4.19132Z" fill="#003081"/>
<path d="M14.449 12.4218H9.82792C9.75893 12.4218 9.68848 12.4897 9.68848 12.5575C9.68848 12.6254 9.75746 12.6919 9.82792 12.6919H14.449C14.518 12.6919 14.587 12.624 14.587 12.5575C14.587 12.4911 14.518 12.4218 14.449 12.4218Z" fill="#003081"/>
<path d="M14.449 11.5899H9.82792C9.75893 11.5899 9.68848 11.6578 9.68848 11.7242C9.68848 11.7906 9.75746 11.8585 9.82792 11.8585H14.449C14.518 11.8585 14.587 11.7906 14.587 11.7242C14.587 11.6578 14.518 11.5899 14.449 11.5899Z" fill="#003081"/>
<path d="M9.82792 11.0266H11.5601C11.6291 11.0266 11.6981 10.9587 11.6981 10.8909C11.6981 10.823 11.6291 10.7565 11.5601 10.7565H9.82792C9.75893 10.7565 9.68848 10.8244 9.68848 10.8909C9.68848 10.9573 9.73544 11.0266 9.82792 11.0266Z" fill="#003081"/>
</svg>
