<svg width="16" height="16" viewBox="0 0 16 16" fill="none" xmlns="http://www.w3.org/2000/svg">
<path d="M7.05911 7.95386C7.05911 7.97726 7.03529 8.00222 7.03529 8.02563V8.62015C7.03529 8.69193 7.10824 8.76214 7.1812 8.76214C7.25416 8.76214 7.32873 8.69037 7.32873 8.62015V8.02563C7.54919 8.07244 7.74428 8.0974 7.96474 8.0974C8.15982 8.0974 8.35649 8.074 8.55157 8.04904V8.64354C8.55157 8.71532 8.62452 8.78555 8.69748 8.78555C8.77043 8.78555 8.84501 8.71376 8.84501 8.64354V8.00066C10.2867 7.61992 11.3621 6.33415 11.3621 4.80962C11.3621 2.97614 9.84739 1.5 7.96474 1.5C6.08209 1.5 4.56738 2.97614 4.56738 4.80962C4.61655 6.28577 5.64276 7.54815 7.06069 7.95229L7.05911 7.95386ZM7.98851 2.35823C9.35728 2.35823 10.4564 3.43021 10.4564 4.7628C10.4564 6.0954 9.35728 7.1674 7.98851 7.1674C6.61975 7.1674 5.5206 6.0954 5.5206 4.7628C5.5206 3.43021 6.61975 2.35823 7.98851 2.35823Z" fill="#003081"/>
<path d="M6.61996 5.71621L6.2044 5.95495C6.3519 6.16873 6.54698 6.35911 6.79123 6.52607L7.03549 6.12193C7.08466 6.05015 7.18143 6.02673 7.25597 6.07355C7.32893 6.12192 7.35428 6.21554 7.30511 6.28732L7.06089 6.69146C7.30514 6.81005 7.57475 6.88183 7.86817 6.90524V6.42932C7.86817 6.35755 7.94111 6.28576 8.01407 6.28576C8.08703 6.28576 8.1616 6.35755 8.1616 6.42932V6.90524C8.45502 6.88183 8.72304 6.81005 8.96888 6.69146L8.72466 6.28732C8.67549 6.21554 8.70084 6.12036 8.7738 6.07355C8.84676 6.02517 8.94512 6.05015 8.99428 6.12193L9.23854 6.52607C9.459 6.38407 9.65408 6.19214 9.82537 5.95495L9.40981 5.71621C9.33685 5.66783 9.3115 5.57265 9.36067 5.50243C9.40984 5.43065 9.50816 5.40726 9.58112 5.45407L9.99664 5.69282C10.1188 5.45407 10.1917 5.19348 10.2171 4.90792H9.72861C9.65565 4.90792 9.58112 4.83614 9.58112 4.76592C9.58112 4.6957 9.65406 4.62236 9.72861 4.62236H10.2171C10.1933 4.3368 10.1188 4.07467 9.99664 3.83749L9.58112 4.07621C9.55732 4.09962 9.53195 4.09962 9.50816 4.09962C9.459 4.09962 9.40982 4.07622 9.38603 4.02785C9.33687 3.95607 9.36067 3.86089 9.43521 3.81408L9.85074 3.57533C9.70323 3.36155 9.50816 3.17118 9.2639 3.00421L9.01965 3.40837C8.94669 3.48015 8.89752 3.52697 8.82456 3.52697C8.80077 3.52697 8.7754 3.52696 8.75161 3.50356C8.67865 3.45518 8.65327 3.36 8.70244 3.28978L8.94669 2.88564C8.70244 2.76705 8.4328 2.69525 8.13938 2.67184V3.14778C8.13938 3.21956 8.06643 3.28978 7.99347 3.28978C7.92051 3.28978 7.84598 3.218 7.84598 3.14778V2.67184C7.55256 2.69525 7.28451 2.76705 7.04025 2.88564L7.28451 3.28978C7.33368 3.36156 7.30829 3.45674 7.23533 3.50356C7.20996 3.52696 7.18617 3.52697 7.16238 3.52697C7.11321 3.52697 7.06404 3.50355 7.04025 3.45517L6.79599 3.05103C6.57553 3.19303 6.38046 3.38497 6.20916 3.62215L6.62473 3.8609C6.69768 3.90771 6.72303 4.00289 6.67386 4.07467C6.65007 4.12304 6.6009 4.14644 6.55174 4.14644C6.52794 4.14644 6.50257 4.14644 6.47878 4.12303L6.06326 3.88429C5.94113 4.12303 5.86815 4.38362 5.84277 4.66918H6.33129C6.40425 4.66918 6.4772 4.74096 6.4772 4.81274C6.4772 4.88452 6.40425 4.95473 6.33129 4.95473H5.84277C5.86815 5.24028 5.94113 5.50243 6.06326 5.73962L6.47878 5.50087C6.55174 5.4525 6.6501 5.47747 6.69927 5.54925C6.72306 5.59762 6.69923 5.66783 6.62628 5.71621H6.61996ZM7.08467 4.21665C7.13383 4.14488 7.23057 4.12148 7.30511 4.16829L8.1362 4.716L8.72307 4.35866C8.79603 4.31028 8.89435 4.33526 8.94352 4.40704C8.99269 4.47882 8.96889 4.574 8.89434 4.62081L8.23456 5.04993C8.21077 5.07333 8.1854 5.07332 8.1616 5.07332C8.13781 5.07332 8.11242 5.07333 8.06325 5.04993L7.15921 4.43043C7.06087 4.38206 7.03709 4.28843 7.08625 4.21665H7.08467Z" fill="#003081"/>
<path d="M5.93555 9.74052L7.23134 12.3121L7.81817 11.3353L6.27812 9.28799L5.93555 9.74052Z" fill="#003081"/>
<path d="M8.72129 12.3121L10.0663 9.74052L9.67451 9.28799L8.18359 11.3353L8.72129 12.3121Z" fill="#003081"/>
<path d="M11.8509 10.4786L10.3109 9.93089L8.86915 12.7162C8.84536 12.7646 8.79619 12.788 8.74702 12.788H8.72166C8.69787 12.788 8.64868 12.7646 8.6233 12.7396V12.6913L7.98729 11.6193L7.32751 12.6913V12.7147H7.20538C7.18159 12.7147 7.1562 12.7147 7.1562 12.6913C7.13241 12.6679 7.10704 12.6429 7.08325 12.6195L6.17921 10.9046L5.69069 9.92776L5.08004 10.1665L4.15064 10.5004C3.34492 10.786 2.80566 11.5241 2.80566 12.3573V14.8805H4.34572V12.6429C4.34572 12.5711 4.41866 12.5009 4.49162 12.5009C4.56458 12.5009 4.63915 12.5727 4.63915 12.6429V14.8805H11.3608V12.6429C11.3608 12.5711 11.4338 12.5009 11.5083 12.5009C11.5829 12.5009 11.6543 12.5727 11.6543 12.6429V14.8805H13.1943V12.309C13.1705 11.4991 12.6329 10.761 11.8494 10.4755L11.8509 10.4786Z" fill="#003081"/>
<path d="M14.3425 2.71555L13.4385 1.83548L13.4147 1.81209H13.2196C13.2196 1.81209 13.1958 1.81207 13.1958 1.83548L12.2918 2.71555C12.2426 2.76393 12.2426 2.85911 12.2918 2.92933C12.3409 2.9777 12.4392 2.9777 12.5122 2.92933L13.172 2.28644V9.07266C13.172 9.14444 13.245 9.21623 13.3195 9.21623C13.3941 9.21623 13.4654 9.14444 13.4654 9.07266V2.28644L14.1252 2.92933C14.149 2.95273 14.1982 2.97771 14.2236 2.97771C14.2489 2.97771 14.2965 2.95429 14.3219 2.92933C14.3948 2.85755 14.3949 2.76236 14.3457 2.71555H14.3425Z" fill="#003081"/>
<path d="M2.78349 2.28799L3.44332 2.93088C3.46711 2.95428 3.51626 2.97926 3.54163 2.97926C3.56701 2.97926 3.61461 2.95584 3.63999 2.93088C3.68915 2.88251 3.68915 2.78888 3.63999 2.7171L2.71054 1.81208L2.68518 1.78867H2.4901C2.4901 1.78867 2.46628 1.78867 2.46628 1.81208L1.53688 2.7171C1.48771 2.76548 1.48771 2.86066 1.53688 2.93088C1.58604 2.97925 1.68278 2.97925 1.75732 2.93088L2.41714 2.28799V6.69303C2.41714 6.7648 2.49009 6.83659 2.56305 6.83659C2.63601 6.83659 2.71054 6.7648 2.71054 6.69303V2.28799H2.78349Z" fill="#003081"/>
</svg>
